<?xml version="1.0" encoding="UTF-8" standalone="no"?>
<svg
   xmlns:dc="http://purl.org/dc/elements/1.1/"
   xmlns:cc="http://creativecommons.org/ns#"
   xmlns:rdf="http://www.w3.org/1999/02/22-rdf-syntax-ns#"
   xmlns:svg="http://www.w3.org/2000/svg"
   xmlns="http://www.w3.org/2000/svg"
   xmlns:sodipodi="http://sodipodi.sourceforge.net/DTD/sodipodi-0.dtd"
   xmlns:inkscape="http://www.inkscape.org/namespaces/inkscape"
   version="1.1"
   width="29.7002cm"
   height="21.0007cm"
   viewBox="0 0 116930 82680 "
   id="svg2"
   inkscape:version="0.48.5 r10040"
   sodipodi:docname="gate_driver_1.svg"
   inkscape:export-filename="/home/valka/Документы/libreinductor/gate_driver_1.png"
   inkscape:export-xdpi="300"
   inkscape:export-ydpi="300">
  <metadata
     id="metadata1388">
    <rdf:RDF>
      <cc:Work
         rdf:about="">
        <dc:format>image/svg+xml</dc:format>
        <dc:type
           rdf:resource="http://purl.org/dc/dcmitype/StillImage" />
        <dc:title>SVG Picture created as gate_driver_1.svg date 2014/10/27 12:47:11 </dc:title>
      </cc:Work>
    </rdf:RDF>
  </metadata>
  <defs
     id="defs1386" />
  <sodipodi:namedview
     pagecolor="#000000"
     bordercolor="#666666"
     borderopacity="1"
     objecttolerance="10"
     gridtolerance="10"
     guidetolerance="10"
     inkscape:pageopacity="1"
     inkscape:pageshadow="2"
     inkscape:window-width="640"
     inkscape:window-height="480"
     id="namedview1384"
     showgrid="false"
     inkscape:zoom="0.39768071"
     inkscape:cx="526.18463"
     inkscape:cy="372.05963"
     inkscape:window-x="0"
     inkscape:window-y="20"
     inkscape:window-maximized="0"
     inkscape:current-layer="svg2" />
  <title
     id="title4">SVG Picture created as gate_driver_1.svg date 2014/10/27 12:47:11 </title>
  <desc
     id="desc6">Picture generated by Eeschema-SVG </desc>
  <g
     style="fill:#000000; fill-opacity:1;stroke:#000000; stroke-opacity:1; stroke-linecap:round; stroke-linejoin:round; "
     transform="translate(0 0) scale(1 1)"
     id="g8" />
  <g
     style="fill:#A00000; fill-opacity:0.0;  stroke:#A00000; stroke-width:100; stroke-opacity:1;  stroke-linecap:round; stroke-linejoin:round;"
     id="g10">
    <path
       d="M4000 4000 L112930 4000 L112930 78680 L4000 78680 L4000 4000 "
       id="path12" />
    <path
       d="M4700 4700 L112230 4700 L112230 77980 L4700 77980 L4700 4700 "
       id="path14" />
    <path
       d="M25780 4000 L25780 4700 "
       id="path16" />
    <path
       d="M15030 4550 L14750 4550 "
       id="path18" />
    <path
       d="M14890 4550 L14890 4050 L14840 4120 L14790 4170 L14750 4200 "
       id="path20" />
    <path
       d="M25780 78680 L25780 77980 "
       id="path22" />
    <path
       d="M15030 78530 L14750 78530 "
       id="path24" />
    <path
       d="M14890 78530 L14890 78030 L14840 78100 L14790 78150 L14750 78180 "
       id="path26" />
    <path
       d="M47560 4000 L47560 4700 "
       id="path28" />
    <path
       d="M36530 4100 L36550 4080 L36600 4050 L36720 4050 L36760 4080 L36790 4100 L36810 4150 L36810 4200 L36790 4270 L36500 4550 L36810 4550 "
       id="path30" />
    <path
       d="M47560 78680 L47560 77980 "
       id="path32" />
    <path
       d="M36530 78080 L36550 78060 L36600 78030 L36720 78030 L36760 78060 L36790 78080 L36810 78130 L36810 78180 L36790 78250 L36500 78530 L36810 78530 "
       id="path34" />
    <path
       d="M69340 4000 L69340 4700 "
       id="path36" />
    <path
       d="M58280 4050 L58590 4050 L58420 4240 L58500 4240 L58540 4270 L58570 4290 L58590 4340 L58590 4460 L58570 4500 L58540 4530 L58500 4550 L58350 4550 L58310 4530 L58280 4500 "
       id="path38" />
    <path
       d="M69340 78680 L69340 77980 "
       id="path40" />
    <path
       d="M58280 78030 L58590 78030 L58420 78220 L58500 78220 L58540 78250 L58570 78270 L58590 78320 L58590 78440 L58570 78480 L58540 78510 L58500 78530 L58350 78530 L58310 78510 L58280 78480 "
       id="path42" />
    <path
       d="M91120 4000 L91120 4700 "
       id="path44" />
    <path
       d="M80320 4220 L80320 4550 "
       id="path46" />
    <path
       d="M80200 4030 L80090 4390 L80390 4390 "
       id="path48" />
    <path
       d="M91120 78680 L91120 77980 "
       id="path50" />
    <path
       d="M80320 78200 L80320 78530 "
       id="path52" />
    <path
       d="M80200 78010 L80090 78370 L80390 78370 "
       id="path54" />
    <path
       d="M102130 4050 L101890 4050 L101870 4290 L101890 4270 L101940 4240 L102060 4240 L102100 4270 L102130 4290 L102150 4340 L102150 4460 L102130 4500 L102100 4530 L102060 4550 L101940 4550 L101890 4530 L101870 4500 "
       id="path56" />
    <path
       d="M102130 78030 L101890 78030 L101870 78270 L101890 78250 L101940 78220 L102060 78220 L102100 78250 L102130 78270 L102150 78320 L102150 78440 L102130 78480 L102100 78510 L102060 78530 L101940 78530 L101890 78510 L101870 78480 "
       id="path58" />
    <path
       d="M4000 28890 L4700 28890 "
       id="path60" />
    <path
       d="M4240 16510 L4470 16510 "
       id="path62" />
    <path
       d="M4190 16650 L4350 16150 L4520 16650 "
       id="path64" />
    <path
       d="M112930 28890 L112230 28890 "
       id="path66" />
    <path
       d="M112470 16510 L112700 16510 "
       id="path68" />
    <path
       d="M112420 16650 L112580 16150 L112750 16650 "
       id="path70" />
    <path
       d="M4000 53780 L4700 53780 "
       id="path72" />
    <path
       d="M4390 41280 L4460 41300 L4480 41330 L4500 41380 L4500 41450 L4480 41490 L4460 41520 L4410 41540 L4220 41540 L4220 41040 L4390 41040 L4430 41070 L4460 41090 L4480 41140 L4480 41190 L4460 41230 L4430 41260 L4390 41280 L4220 41280 "
       id="path74" />
    <path
       d="M112930 53780 L112230 53780 "
       id="path76" />
    <path
       d="M112620 41280 L112690 41300 L112710 41330 L112730 41380 L112730 41450 L112710 41490 L112690 41520 L112640 41540 L112450 41540 L112450 41040 L112620 41040 L112660 41070 L112690 41090 L112710 41140 L112710 41190 L112690 41230 L112660 41260 L112620 41280 L112450 41280 "
       id="path78" />
    <path
       d="M4500 66380 L4480 66410 L4410 66430 L4360 66430 L4290 66410 L4240 66360 L4220 66310 L4200 66220 L4200 66150 L4220 66050 L4240 66000 L4290 65960 L4360 65930 L4410 65930 L4480 65960 L4500 65980 "
       id="path80" />
    <path
       d="M112730 66380 L112710 66410 L112640 66430 L112590 66430 L112520 66410 L112470 66360 L112450 66310 L112430 66220 L112430 66150 L112450 66050 L112470 66000 L112520 65960 L112590 65930 L112640 65930 L112710 65960 L112730 65980 "
       id="path82" />
    <path
       d="M79380 76420 L79450 75820 L79600 75820 L79680 75850 L79730 75910 L79750 75970 L79770 76080 L79760 76170 L79720 76280 L79680 76340 L79610 76390 L79530 76420 L79380 76420 "
       id="path84" />
    <path
       d="M80240 76420 L80280 76110 L80250 76050 L80200 76020 L80090 76020 L80020 76050 "
       id="path86" />
    <path
       d="M80240 76390 L80180 76420 L80040 76420 L79980 76390 L79960 76340 L79970 76280 L80000 76220 L80070 76190 L80210 76190 L80270 76170 "
       id="path88" />
    <path
       d="M80490 76020 L80720 76020 "
       id="path90" />
    <path
       d="M80590 75820 L80530 76340 L80550 76390 L80610 76420 L80670 76420 "
       id="path92" />
    <path
       d="M81090 76390 L81030 76420 L80920 76420 L80860 76390 L80840 76340 L80870 76110 L80900 76050 L80970 76020 L81080 76020 L81130 76050 L81160 76110 L81150 76170 L80850 76220 "
       id="path94" />
    <path
       d="M81370 76370 L81400 76390 L81370 76420 L81340 76390 L81370 76370 L81370 76420 "
       id="path96" />
    <path
       d="M81410 76050 L81440 76080 L81410 76110 L81380 76080 L81410 76050 L81410 76110 "
       id="path98" />
    <path
       d="M82160 75880 L82190 75850 L82250 75820 L82390 75820 L82450 75850 L82480 75880 L82500 75940 L82490 75990 L82450 76080 L82070 76420 L82440 76420 "
       id="path100" />
    <path
       d="M82710 75820 L83110 75820 L82780 76420 "
       id="path102" />
    <path
       d="M83810 76420 L83750 76390 L83720 76370 L83700 76310 L83720 76140 L83760 76080 L83790 76050 L83860 76020 L83940 76020 L83990 76050 L84020 76080 L84040 76140 L84020 76310 L83980 76370 L83950 76390 L83890 76420 L83810 76420 "
       id="path104" />
    <path
       d="M84520 76390 L84460 76420 L84350 76420 L84290 76390 L84260 76370 L84240 76310 L84260 76140 L84300 76080 L84330 76050 L84400 76020 L84510 76020 L84560 76050 "
       id="path106" />
    <path
       d="M84740 76020 L84970 76020 "
       id="path108" />
    <path
       d="M84840 75820 L84780 76340 L84800 76390 L84860 76420 L84920 76420 "
       id="path110" />
    <path
       d="M85610 75880 L85640 75850 L85700 75820 L85840 75820 L85900 75850 L85930 75880 L85950 75940 L85940 75990 L85900 76080 L85520 76420 L85890 76420 "
       id="path112" />
    <path
       d="M86330 75820 L86380 75820 L86440 75850 L86470 75880 L86490 75940 L86500 76050 L86490 76190 L86440 76310 L86400 76370 L86370 76390 L86310 76420 L86260 76420 L86200 76390 L86170 76370 L86150 76310 L86140 76190 L86150 76050 L86200 75940 L86240 75880 L86270 75850 L86330 75820 "
       id="path114" />
    <path
       d="M87030 76420 L86680 76420 "
       id="path116" />
    <path
       d="M86860 76420 L86930 75820 L86860 75910 L86790 75970 L86730 75990 "
       id="path118" />
    <path
       d="M87590 76020 L87540 76420 "
       id="path120" />
    <path
       d="M87480 75790 L87270 76220 L87650 76220 "
       id="path122" />
    <path
       d="M70970 77620 L70970 77020 "
       id="path124" />
    <path
       d="M71320 77620 L71060 77280 "
       id="path126" />
    <path
       d="M71320 77020 L70970 77370 "
       id="path128" />
    <path
       d="M71570 77620 L71570 77220 "
       id="path130" />
    <path
       d="M71570 77020 L71540 77050 L71570 77080 L71600 77050 L71570 77020 L71570 77080 "
       id="path132" />
    <path
       d="M72210 77570 L72180 77590 L72090 77620 L72030 77620 L71950 77590 L71890 77540 L71860 77480 L71830 77370 L71830 77280 L71860 77170 L71890 77110 L71950 77050 L72030 77020 L72090 77020 L72180 77050 L72210 77080 "
       id="path134" />
    <path
       d="M72720 77620 L72720 77310 L72690 77250 L72630 77220 L72520 77220 L72460 77250 "
       id="path136" />
    <path
       d="M72720 77590 L72660 77620 L72520 77620 L72460 77590 L72430 77540 L72430 77480 L72460 77420 L72520 77390 L72660 77390 L72720 77370 "
       id="path138" />
    <path
       d="M73260 77620 L73260 77020 "
       id="path140" />
    <path
       d="M73260 77590 L73200 77620 L73090 77620 L73030 77590 L73000 77570 L72970 77510 L72970 77340 L73000 77280 L73030 77250 L73090 77220 L73200 77220 L73260 77250 "
       id="path142" />
    <path
       d="M74000 77310 L74200 77310 "
       id="path144" />
    <path
       d="M74290 77620 L74000 77620 L74000 77020 L74290 77020 "
       id="path146" />
    <path
       d="M74540 77570 L74570 77590 L74540 77620 L74510 77590 L74540 77570 L74540 77620 "
       id="path148" />
    <path
       d="M74830 77620 L74830 77020 L74980 77020 L75060 77050 L75120 77110 L75150 77170 L75180 77280 L75180 77370 L75150 77480 L75120 77540 L75060 77590 L74980 77620 L74830 77620 "
       id="path150" />
    <path
       d="M75430 77570 L75460 77590 L75430 77620 L75400 77590 L75430 77570 L75430 77620 "
       id="path152" />
    <path
       d="M75690 77450 L75980 77450 "
       id="path154" />
    <path
       d="M75640 77620 L75840 77020 L76040 77620 "
       id="path156" />
    <path
       d="M76230 77570 L76260 77590 L76230 77620 L76200 77590 L76230 77570 L76230 77620 "
       id="path158" />
    <path
       d="M104530 76420 L104360 76140 "
       id="path160" />
    <path
       d="M104180 76420 L104250 75820 L104480 75820 L104540 75850 L104570 75880 L104590 75940 L104580 76020 L104540 76080 L104510 76110 L104440 76140 L104210 76140 "
       id="path162" />
    <path
       d="M105010 76390 L104950 76420 L104840 76420 L104780 76390 L104760 76340 L104790 76110 L104820 76050 L104890 76020 L105000 76020 L105050 76050 L105080 76110 L105070 76170 L104770 76220 "
       id="path164" />
    <path
       d="M105290 76020 L105380 76420 L105570 76020 "
       id="path166" />
    <path
       d="M105750 76370 L105780 76390 L105750 76420 L105720 76390 L105750 76370 L105750 76420 "
       id="path168" />
    <path
       d="M105790 76050 L105820 76080 L105790 76110 L105760 76080 L105790 76050 L105790 76110 "
       id="path170" />
    <path
       d="M70940 76390 L71030 76420 L71170 76420 L71230 76390 L71260 76370 L71290 76310 L71290 76250 L71260 76190 L71230 76170 L71170 76140 L71060 76110 L71000 76080 L70970 76050 L70940 75990 L70940 75940 L70970 75880 L71000 75850 L71060 75820 L71200 75820 L71290 75850 "
       id="path172" />
    <path
       d="M71540 76420 L71540 76020 "
       id="path174" />
    <path
       d="M71540 75820 L71510 75850 L71540 75880 L71570 75850 L71540 75820 L71540 75880 "
       id="path176" />
    <path
       d="M71780 76020 L72090 76020 L71780 76420 L72090 76420 "
       id="path178" />
    <path
       d="M72550 76390 L72490 76420 L72380 76420 L72320 76390 L72290 76340 L72290 76110 L72320 76050 L72380 76020 L72490 76020 L72550 76050 L72580 76110 L72580 76170 L72290 76220 "
       id="path180" />
    <path
       d="M72830 76370 L72860 76390 L72830 76420 L72800 76390 L72830 76370 L72830 76420 "
       id="path182" />
    <path
       d="M72830 76050 L72860 76080 L72830 76110 L72800 76080 L72830 76050 L72830 76110 "
       id="path184" />
    <path
       d="M73550 76250 L73840 76250 "
       id="path186" />
    <path
       d="M73500 76420 L73700 75820 L73900 76420 "
       id="path188" />
    <path
       d="M74350 76020 L74350 76420 "
       id="path190" />
    <path
       d="M74210 75790 L74060 76220 L74440 76220 "
       id="path192" />
    <path
       d="M104170 77620 L104170 77020 "
       id="path194" />
    <path
       d="M104720 77620 L104720 77020 "
       id="path196" />
    <path
       d="M104720 77590 L104660 77620 L104550 77620 L104490 77590 L104460 77570 L104430 77510 L104430 77340 L104460 77280 L104490 77250 L104550 77220 L104660 77220 L104720 77250 "
       id="path198" />
    <path
       d="M105000 77570 L105030 77590 L105000 77620 L104970 77590 L105000 77570 L105000 77620 "
       id="path200" />
    <path
       d="M105000 77250 L105030 77280 L105000 77310 L104970 77280 L105000 77250 L105000 77310 "
       id="path202" />
    <path
       d="M106010 77020 L105900 77020 L105840 77050 L105810 77080 L105750 77170 L105720 77280 L105720 77510 L105750 77570 L105780 77590 L105840 77620 L105950 77620 L106010 77590 L106040 77570 L106070 77510 L106070 77370 L106040 77310 L106010 77280 L105950 77250 L105840 77250 L105780 77280 L105750 77310 L105720 77370 "
       id="path204" />
    <path
       d="M106750 76990 L106240 77770 "
       id="path206" />
    <path
       d="M107270 77620 L106920 77620 "
       id="path208" />
    <path
       d="M107100 77620 L107100 77020 L107040 77110 L106980 77170 L106920 77190 "
       id="path210" />
    <path
       d="M107490 77080 L107520 77050 L107580 77020 L107720 77020 L107780 77050 L107810 77080 L107840 77140 L107840 77190 L107810 77280 L107470 77620 L107840 77620 "
       id="path212" />
    <path
       d="M70970 74620 L71310 74620 "
       id="path214" />
    <path
       d="M71070 75220 L71140 74620 "
       id="path216" />
    <path
       d="M71440 75220 L71490 74820 "
       id="path218" />
    <path
       d="M71510 74620 L71480 74650 L71510 74680 L71540 74650 L71510 74620 L71510 74680 "
       id="path220" />
    <path
       d="M71700 74820 L71930 74820 "
       id="path222" />
    <path
       d="M71800 74620 L71740 75140 L71760 75190 L71820 75220 L71880 75220 "
       id="path224" />
    <path
       d="M72160 75220 L72100 75190 L72080 75140 L72140 74620 "
       id="path226" />
    <path
       d="M72610 75190 L72550 75220 L72440 75220 L72380 75190 L72360 75140 L72390 74910 L72420 74850 L72490 74820 L72600 74820 L72650 74850 L72680 74910 L72670 74970 L72370 75020 "
       id="path228" />
    <path
       d="M72890 75170 L72920 75190 L72890 75220 L72860 75190 L72890 75170 L72890 75220 "
       id="path230" />
    <path
       d="M72930 74850 L72960 74880 L72930 74910 L72900 74880 L72930 74850 L72930 74910 "
       id="path232" />
    <path
       d="M71170 72510 L70970 72510 "
       id="path234" />
    <path
       d="M70970 72820 L70970 72220 L71260 72220 "
       id="path236" />
    <path
       d="M71480 72820 L71480 72420 "
       id="path238" />
    <path
       d="M71480 72220 L71450 72250 L71480 72280 L71510 72250 L71480 72220 L71480 72280 "
       id="path240" />
    <path
       d="M71860 72820 L71800 72790 L71770 72740 L71770 72220 "
       id="path242" />
    <path
       d="M72310 72790 L72250 72820 L72140 72820 L72080 72790 L72050 72740 L72050 72510 L72080 72450 L72140 72420 L72250 72420 L72310 72450 L72340 72510 L72340 72570 L72050 72620 "
       id="path244" />
    <path
       d="M72590 72770 L72620 72790 L72590 72820 L72560 72790 L72590 72770 L72590 72820 "
       id="path246" />
    <path
       d="M72590 72450 L72620 72480 L72590 72510 L72560 72480 L72590 72450 L72590 72510 "
       id="path248" />
    <path
       d="M73600 72420 L73600 72910 L73570 72970 L73540 72990 L73490 73020 L73400 73020 L73340 72990 "
       id="path250" />
    <path
       d="M73600 72790 L73540 72820 L73430 72820 L73370 72790 L73340 72770 L73310 72710 L73310 72540 L73340 72480 L73370 72450 L73430 72420 L73540 72420 L73600 72450 "
       id="path252" />
    <path
       d="M74140 72820 L74140 72510 L74110 72450 L74050 72420 L73940 72420 L73880 72450 "
       id="path254" />
    <path
       d="M74140 72790 L74080 72820 L73940 72820 L73880 72790 L73850 72740 L73850 72680 L73880 72620 L73940 72590 L74080 72590 L74140 72570 "
       id="path256" />
    <path
       d="M74340 72420 L74570 72420 "
       id="path258" />
    <path
       d="M74420 72220 L74420 72740 L74450 72790 L74510 72820 L74570 72820 "
       id="path260" />
    <path
       d="M74990 72790 L74930 72820 L74820 72820 L74760 72790 L74730 72740 L74730 72510 L74760 72450 L74820 72420 L74930 72420 L74990 72450 L75020 72510 L75020 72570 L74730 72620 "
       id="path262" />
    <path
       d="M75130 72880 L75590 72880 "
       id="path264" />
    <path
       d="M75990 72820 L75990 72220 "
       id="path266" />
    <path
       d="M75990 72790 L75930 72820 L75820 72820 L75760 72790 L75730 72770 L75700 72710 L75700 72540 L75730 72480 L75760 72450 L75820 72420 L75930 72420 L75990 72450 "
       id="path268" />
    <path
       d="M76270 72820 L76270 72420 "
       id="path270" />
    <path
       d="M76270 72540 L76300 72480 L76330 72450 L76390 72420 L76440 72420 "
       id="path272" />
    <path
       d="M76640 72820 L76640 72420 "
       id="path274" />
    <path
       d="M76640 72220 L76610 72250 L76640 72280 L76670 72250 L76640 72220 L76640 72280 "
       id="path276" />
    <path
       d="M76880 72420 L77020 72820 L77160 72420 "
       id="path278" />
    <path
       d="M77620 72790 L77560 72820 L77450 72820 L77390 72790 L77360 72740 L77360 72510 L77390 72450 L77450 72420 L77560 72420 L77620 72450 L77650 72510 L77650 72570 L77360 72620 "
       id="path280" />
    <path
       d="M77900 72820 L77900 72420 "
       id="path282" />
    <path
       d="M77900 72540 L77930 72480 L77960 72450 L78020 72420 L78070 72420 "
       id="path284" />
    <path
       d="M78130 72880 L78590 72880 "
       id="path286" />
    <path
       d="M79050 72820 L78700 72820 "
       id="path288" />
    <path
       d="M78880 72820 L78880 72220 L78820 72310 L78760 72370 L78700 72390 "
       id="path290" />
    <path
       d="M79300 72770 L79330 72790 L79300 72820 L79270 72790 L79300 72770 L79300 72820 "
       id="path292" />
    <path
       d="M79560 72790 L79620 72820 L79740 72820 L79790 72790 L79820 72740 L79820 72710 L79790 72650 L79740 72620 L79650 72620 L79590 72590 L79560 72540 L79560 72510 L79590 72450 L79650 72420 L79740 72420 L79790 72450 "
       id="path294" />
    <path
       d="M80340 72790 L80280 72820 L80170 72820 L80110 72790 L80080 72770 L80050 72710 L80050 72540 L80080 72480 L80110 72450 L80170 72420 L80280 72420 L80340 72450 "
       id="path296" />
    <path
       d="M80590 72820 L80590 72220 "
       id="path298" />
    <path
       d="M80850 72820 L80850 72510 L80820 72450 L80760 72420 L80680 72420 L80620 72450 L80590 72480 "
       id="path300" />
    <path
       d="M70940 73990 L71030 74020 L71170 74020 L71230 73990 L71260 73970 L71290 73910 L71290 73850 L71260 73790 L71230 73770 L71170 73740 L71060 73710 L71000 73680 L70970 73650 L70940 73590 L70940 73540 L70970 73480 L71000 73450 L71060 73420 L71200 73420 L71290 73450 "
       id="path302" />
    <path
       d="M71540 74020 L71540 73420 "
       id="path304" />
    <path
       d="M71800 74020 L71800 73710 L71770 73650 L71710 73620 L71630 73620 L71570 73650 L71540 73680 "
       id="path306" />
    <path
       d="M72310 73990 L72250 74020 L72140 74020 L72080 73990 L72050 73940 L72050 73710 L72080 73650 L72140 73620 L72250 73620 L72310 73650 L72340 73710 L72340 73770 L72050 73820 "
       id="path308" />
    <path
       d="M72820 73990 L72760 74020 L72650 74020 L72590 73990 L72560 73940 L72560 73710 L72590 73650 L72650 73620 L72760 73620 L72820 73650 L72850 73710 L72850 73770 L72560 73820 "
       id="path310" />
    <path
       d="M73020 73620 L73250 73620 "
       id="path312" />
    <path
       d="M73100 73420 L73100 73940 L73130 73990 L73190 74020 L73250 74020 "
       id="path314" />
    <path
       d="M73440 73970 L73470 73990 L73440 74020 L73410 73990 L73440 73970 L73440 74020 "
       id="path316" />
    <path
       d="M73440 73650 L73470 73680 L73440 73710 L73410 73680 L73440 73650 L73440 73710 "
       id="path318" />
    <path
       d="M74620 73390 L74110 74170 "
       id="path320" />
    <path
       d="M74820 74020 L74820 73420 "
       id="path322" />
    <path
       d="M75110 73620 L75110 74020 "
       id="path324" />
    <path
       d="M75110 73680 L75140 73650 L75200 73620 L75280 73620 L75340 73650 L75370 73710 L75370 74020 "
       id="path326" />
    <path
       d="M75600 73620 L75740 74020 L75880 73620 "
       id="path328" />
    <path
       d="M76340 73990 L76280 74020 L76170 74020 L76110 73990 L76080 73940 L76080 73710 L76110 73650 L76170 73620 L76280 73620 L76340 73650 L76370 73710 L76370 73770 L76080 73820 "
       id="path330" />
    <path
       d="M76620 74020 L76620 73620 "
       id="path332" />
    <path
       d="M76620 73740 L76650 73680 L76680 73650 L76740 73620 L76790 73620 "
       id="path334" />
    <path
       d="M76910 73620 L77140 73620 "
       id="path336" />
    <path
       d="M76990 73420 L76990 73940 L77020 73990 L77080 74020 L77140 74020 "
       id="path338" />
    <path
       d="M77560 73990 L77500 74020 L77390 74020 L77330 73990 L77300 73940 L77300 73710 L77330 73650 L77390 73620 L77500 73620 L77560 73650 L77590 73710 L77590 73770 L77300 73820 "
       id="path340" />
    <path
       d="M77840 74020 L77840 73620 "
       id="path342" />
    <path
       d="M77840 73740 L77870 73680 L77900 73650 L77960 73620 L78010 73620 "
       id="path344" />
    <path
       d="M78870 73710 L78960 73740 L78990 73770 L79020 73820 L79020 73910 L78990 73970 L78960 73990 L78900 74020 L78670 74020 L78670 73420 L78870 73420 L78930 73450 L78960 73480 L78990 73540 L78990 73590 L78960 73650 L78930 73680 L78870 73710 L78670 73710 "
       id="path346" />
    <path
       d="M79270 74020 L79270 73620 "
       id="path348" />
    <path
       d="M79270 73740 L79300 73680 L79330 73650 L79390 73620 L79440 73620 "
       id="path350" />
    <path
       d="M79640 74020 L79640 73620 "
       id="path352" />
    <path
       d="M79640 73420 L79610 73450 L79640 73480 L79670 73450 L79640 73420 L79640 73480 "
       id="path354" />
    <path
       d="M80190 74020 L80190 73420 "
       id="path356" />
    <path
       d="M80190 73990 L80130 74020 L80020 74020 L79960 73990 L79930 73970 L79900 73910 L79900 73740 L79930 73680 L79960 73650 L80020 73620 L80130 73620 L80190 73650 "
       id="path358" />
    <path
       d="M80730 73620 L80730 74110 L80700 74170 L80670 74190 L80620 74220 L80530 74220 L80470 74190 "
       id="path360" />
    <path
       d="M80730 73990 L80670 74020 L80560 74020 L80500 73990 L80470 73970 L80440 73910 L80440 73740 L80470 73680 L80500 73650 L80560 73620 L80670 73620 L80730 73650 "
       id="path362" />
    <path
       d="M81240 73990 L81180 74020 L81070 74020 L81010 73990 L80980 73940 L80980 73710 L81010 73650 L81070 73620 L81180 73620 L81240 73650 L81270 73710 L81270 73770 L80980 73820 "
       id="path364" />
    <path
       d="M81950 73390 L81440 74170 "
       id="path366" />
    <path
       d="M82470 73450 L82410 73420 L82320 73420 L82240 73450 L82180 73510 L82150 73570 L82120 73680 L82120 73770 L82150 73880 L82180 73940 L82240 73990 L82320 74020 L82380 74020 L82470 73990 L82500 73970 L82500 73770 L82380 73770 "
       id="path368" />
    <path
       d="M83010 74020 L83010 73710 L82980 73650 L82920 73620 L82810 73620 L82750 73650 "
       id="path370" />
    <path
       d="M83010 73990 L82950 74020 L82810 74020 L82750 73990 L82720 73940 L82720 73880 L82750 73820 L82810 73790 L82950 73790 L83010 73770 "
       id="path372" />
    <path
       d="M83210 73620 L83440 73620 "
       id="path374" />
    <path
       d="M83290 73420 L83290 73940 L83320 73990 L83380 74020 L83440 74020 "
       id="path376" />
    <path
       d="M83860 73990 L83800 74020 L83690 74020 L83630 73990 L83600 73940 L83600 73710 L83630 73650 L83690 73620 L83800 73620 L83860 73650 L83890 73710 L83890 73770 L83600 73820 "
       id="path378" />
    <path
       d="M84600 74020 L84600 73420 L84750 73420 L84830 73450 L84890 73510 L84920 73570 L84950 73680 L84950 73770 L84920 73880 L84890 73940 L84830 73990 L84750 74020 L84600 74020 "
       id="path380" />
    <path
       d="M85200 74020 L85200 73620 "
       id="path382" />
    <path
       d="M85200 73740 L85230 73680 L85260 73650 L85320 73620 L85370 73620 "
       id="path384" />
    <path
       d="M85570 74020 L85570 73620 "
       id="path386" />
    <path
       d="M85570 73420 L85540 73450 L85570 73480 L85600 73450 L85570 73420 L85570 73480 "
       id="path388" />
    <path
       d="M85810 73620 L85950 74020 L86090 73620 "
       id="path390" />
    <path
       d="M86550 73990 L86490 74020 L86380 74020 L86320 73990 L86290 73940 L86290 73710 L86320 73650 L86380 73620 L86490 73620 L86550 73650 L86580 73710 L86580 73770 L86290 73820 "
       id="path392" />
    <path
       d="M86830 74020 L86830 73620 "
       id="path394" />
    <path
       d="M86830 73740 L86860 73680 L86890 73650 L86950 73620 L87000 73620 "
       id="path396" />
    <path
       d="M87660 73790 L88120 73790 "
       id="path398" />
    <path
       d="M89180 74020 L88830 74020 "
       id="path400" />
    <path
       d="M89010 74020 L89010 73420 L88950 73510 L88890 73570 L88830 73590 "
       id="path402" />
    <path
       d="M89890 74020 L89890 73420 "
       id="path404" />
    <path
       d="M89890 73710 L90240 73710 "
       id="path406" />
    <path
       d="M90240 74020 L90240 73420 "
       id="path408" />
    <path
       d="M90520 74020 L90520 73620 "
       id="path410" />
    <path
       d="M90520 73420 L90490 73450 L90520 73480 L90550 73450 L90520 73420 L90520 73480 "
       id="path412" />
    <path
       d="M91070 73620 L91070 74110 L91040 74170 L91010 74190 L90960 74220 L90870 74220 L90810 74190 "
       id="path414" />
    <path
       d="M91070 73990 L91010 74020 L90900 74020 L90840 73990 L90810 73970 L90780 73910 L90780 73740 L90810 73680 L90840 73650 L90900 73620 L91010 73620 L91070 73650 "
       id="path416" />
    <path
       d="M91350 74020 L91350 73420 "
       id="path418" />
    <path
       d="M91610 74020 L91610 73710 L91580 73650 L91520 73620 L91440 73620 L91380 73650 L91350 73680 "
       id="path420" />
    <path
       d="M92320 73390 L91810 74170 "
       id="path422" />
    <path
       d="M70230 71980 L70230 77980 "
       id="path424" />
    <path
       d="M70230 71980 L112230 71980 "
       id="path426" />
    <path
       d="M70230 71980 L112230 71980 "
       id="path428" />
    <path
       d="M70230 74380 L112230 74380 "
       id="path430" />
    <path
       d="M103430 75580 L103430 77980 "
       id="path432" />
    <path
       d="M70230 76780 L112230 76780 "
       id="path434" />
    <path
       d="M70230 75580 L112230 75580 "
       id="path436" />
    <path
       d="M76830 75580 L76830 76780 "
       id="path438" />
  </g>
  <g
     style="fill:#A00000; fill-opacity:0.0;  stroke:#A00000; stroke-width:0; stroke-opacity:1;  stroke-linecap:round; stroke-linejoin:round;"
     id="g440" />
  <g
     style="fill:#A00000; fill-opacity:0.0;  stroke:#A00000; stroke-width:60; stroke-opacity:1;  stroke-linecap:round; stroke-linejoin:round;"
     id="g442">
    <rect
       x="39500"
       y="37500"
       width="5500"
       height="5000"
       rx="0"
       id="rect444" />
    <polyline
       fill="none;"
       points="39500,42500 45000,37500 "
       id="polyline446" />
    <path
       d="M39500 41500 L36500 41500 "
       id="path448" />
  </g>
  <g
     style="fill:#00A0A0; fill-opacity:0.0;  stroke:#00A0A0; stroke-width:60; stroke-opacity:1;  stroke-linecap:round; stroke-linejoin:round;"
     id="g450">
    <path
       d="M39720 41510 L40100 41510 "
       id="path452" />
    <path
       d="M40270 41200 L40430 41700 L40600 41200 "
       id="path454" />
    <path
       d="M40770 41700 L40770 41370 "
       id="path456" />
    <path
       d="M40770 41200 L40750 41230 L40770 41250 L40790 41230 L40770 41200 L40770 41250 "
       id="path458" />
    <path
       d="M41010 41370 L41010 41700 "
       id="path460" />
    <path
       d="M41010 41420 L41030 41390 L41080 41370 L41150 41370 L41200 41390 L41220 41440 L41220 41700 "
       id="path462" />
  </g>
  <g
     style="fill:#A00000; fill-opacity:0.0;  stroke:#A00000; stroke-width:60; stroke-opacity:1;  stroke-linecap:round; stroke-linejoin:round;"
     id="g464">
    <path
       d="M38140 41350 L37860 41350 "
       id="path466" />
    <path
       d="M38000 41350 L38000 40850 L37950 40920 L37900 40970 L37860 41000 "
       id="path468" />
    <path
       d="M39500 38500 L36500 38500 "
       id="path470" />
  </g>
  <g
     style="fill:#00A0A0; fill-opacity:0.0;  stroke:#00A0A0; stroke-width:60; stroke-opacity:1;  stroke-linecap:round; stroke-linejoin:round;"
     id="g472">
    <path
       d="M39720 38510 L40100 38510 "
       id="path474" />
    <path
       d="M39910 38700 L39910 38320 "
       id="path476" />
    <path
       d="M40270 38200 L40430 38700 L40600 38200 "
       id="path478" />
    <path
       d="M40770 38700 L40770 38370 "
       id="path480" />
    <path
       d="M40770 38200 L40750 38230 L40770 38250 L40790 38230 L40770 38200 L40770 38250 "
       id="path482" />
    <path
       d="M41010 38370 L41010 38700 "
       id="path484" />
    <path
       d="M41010 38420 L41030 38390 L41080 38370 L41150 38370 L41200 38390 L41220 38440 L41220 38700 "
       id="path486" />
  </g>
  <g
     style="fill:#A00000; fill-opacity:0.0;  stroke:#A00000; stroke-width:60; stroke-opacity:1;  stroke-linecap:round; stroke-linejoin:round;"
     id="g488">
    <path
       d="M37860 37900 L37880 37880 L37930 37850 L38050 37850 L38090 37880 L38120 37900 L38140 37950 L38140 38000 L38120 38070 L37830 38350 L38140 38350 "
       id="path490" />
    <path
       d="M45000 41500 L48000 41500 "
       id="path492" />
  </g>
  <g
     style="fill:#00A0A0; fill-opacity:0.0;  stroke:#00A0A0; stroke-width:60; stroke-opacity:1;  stroke-linecap:round; stroke-linejoin:round;"
     id="g494">
    <path
       d="M42780 41510 L43160 41510 "
       id="path496" />
    <path
       d="M43330 41200 L43490 41700 L43660 41200 "
       id="path498" />
    <path
       d="M43900 41700 L43850 41680 L43830 41650 L43810 41610 L43810 41460 L43830 41420 L43850 41390 L43900 41370 L43970 41370 L44020 41390 L44040 41420 L44070 41460 L44070 41610 L44040 41650 L44020 41680 L43970 41700 L43900 41700 "
       id="path500" />
    <path
       d="M44490 41370 L44490 41700 "
       id="path502" />
    <path
       d="M44280 41370 L44280 41630 L44300 41680 L44350 41700 L44420 41700 L44470 41680 L44490 41650 "
       id="path504" />
    <path
       d="M44660 41370 L44850 41370 "
       id="path506" />
    <path
       d="M44730 41200 L44730 41630 L44750 41680 L44800 41700 L44850 41700 "
       id="path508" />
  </g>
  <g
     style="fill:#A00000; fill-opacity:0.0;  stroke:#A00000; stroke-width:60; stroke-opacity:1;  stroke-linecap:round; stroke-linejoin:round;"
     id="g510">
    <path
       d="M46330 40850 L46640 40850 L46470 41040 L46550 41040 L46590 41070 L46620 41090 L46640 41140 L46640 41260 L46620 41300 L46590 41330 L46550 41350 L46400 41350 L46360 41330 L46330 41300 "
       id="path512" />
    <path
       d="M45000 38500 L48000 38500 "
       id="path514" />
  </g>
  <g
     style="fill:#00A0A0; fill-opacity:0.0;  stroke:#00A0A0; stroke-width:60; stroke-opacity:1;  stroke-linecap:round; stroke-linejoin:round;"
     id="g516">
    <path
       d="M42780 38510 L43160 38510 "
       id="path518" />
    <path
       d="M42970 38700 L42970 38320 "
       id="path520" />
    <path
       d="M43330 38200 L43490 38700 L43660 38200 "
       id="path522" />
    <path
       d="M43900 38700 L43850 38680 L43830 38650 L43810 38610 L43810 38460 L43830 38420 L43850 38390 L43900 38370 L43970 38370 L44020 38390 L44040 38420 L44070 38460 L44070 38610 L44040 38650 L44020 38680 L43970 38700 L43900 38700 "
       id="path524" />
    <path
       d="M44490 38370 L44490 38700 "
       id="path526" />
    <path
       d="M44280 38370 L44280 38630 L44300 38680 L44350 38700 L44420 38700 L44470 38680 L44490 38650 "
       id="path528" />
    <path
       d="M44660 38370 L44850 38370 "
       id="path530" />
    <path
       d="M44730 38200 L44730 38630 L44750 38680 L44800 38700 L44850 38700 "
       id="path532" />
  </g>
  <g
     style="fill:#A00000; fill-opacity:0.0;  stroke:#A00000; stroke-width:60; stroke-opacity:1;  stroke-linecap:round; stroke-linejoin:round;"
     id="g534">
    <path
       d="M46590 38020 L46590 38350 "
       id="path536" />
    <path
       d="M46470 37830 L46360 38190 L46660 38190 "
       id="path538" />
  </g>
  <g
     style="fill:#00A0A0; fill-opacity:0.0;  stroke:#00A0A0; stroke-width:60; stroke-opacity:1;  stroke-linecap:round; stroke-linejoin:round;"
     id="g540">
    <path
       d="M39640 37210 L39640 36610 L39790 36610 L39870 36640 L39930 36700 L39960 36760 L39990 36870 L39990 36960 L39960 37070 L39930 37130 L39870 37180 L39790 37210 L39640 37210 "
       id="path542" />
    <path
       d="M40330 37160 L40360 37180 L40330 37210 L40300 37180 L40330 37160 L40330 37210 "
       id="path544" />
    <path
       d="M40210 36640 L40270 36610 L40410 36610 L40470 36640 L40500 36700 L40500 36760 L40470 36810 L40440 36840 L40390 36870 L40360 36900 L40330 36960 L40330 36980 "
       id="path546" />
    <path
       d="M39990 43210 L39790 42930 "
       id="path548" />
    <path
       d="M39640 43210 L39640 42610 L39870 42610 L39930 42640 L39960 42670 L39990 42730 L39990 42810 L39960 42870 L39930 42900 L39870 42930 L39640 42930 "
       id="path550" />
    <path
       d="M40360 42610 L40470 42610 L40530 42640 L40590 42700 L40610 42810 L40610 43010 L40590 43130 L40530 43180 L40470 43210 L40360 43210 L40300 43180 L40240 43130 L40210 43010 L40210 42810 L40240 42700 L40300 42640 L40360 42610 "
       id="path552" />
    <path
       d="M40870 43210 L40870 42610 L41070 43040 L41270 42610 L41270 43210 "
       id="path554" />
    <path
       d="M41560 42980 L42020 42980 "
       id="path556" />
    <path
       d="M42420 42610 L42470 42610 L42530 42640 L42560 42670 L42590 42730 L42620 42840 L42620 42980 L42590 43100 L42560 43160 L42530 43180 L42470 43210 L42420 43210 L42360 43180 L42330 43160 L42300 43100 L42270 42980 L42270 42840 L42300 42730 L42330 42670 L42360 42640 L42420 42610 "
       id="path558" />
    <path
       d="M43160 42610 L42870 42610 L42840 42900 L42870 42870 L42930 42840 L43070 42840 L43130 42870 L43160 42900 L43190 42960 L43190 43100 L43160 43160 L43130 43180 L43070 43210 L42930 43210 L42870 43180 L42840 43160 "
       id="path560" />
    <path
       d="M43760 43210 L43410 43210 "
       id="path562" />
    <path
       d="M43590 43210 L43590 42610 L43530 42700 L43470 42760 L43410 42780 "
       id="path564" />
    <path
       d="M43980 42670 L44010 42640 L44070 42610 L44210 42610 L44270 42640 L44300 42670 L44330 42730 L44330 42780 L44300 42870 L43960 43210 L44330 43210 "
       id="path566" />
    <path
       d="M44550 43180 L44640 43210 L44780 43210 L44840 43180 L44870 43160 L44900 43100 L44900 43040 L44870 42980 L44840 42960 L44780 42930 L44670 42900 L44610 42870 L44580 42840 L44550 42780 L44550 42730 L44580 42670 L44610 42640 L44670 42610 L44810 42610 L44900 42640 "
       id="path568" />
  </g>
  <g
     style="fill:#00A0A0; fill-opacity:0.0;  stroke:#00A0A0; stroke-width:0; stroke-opacity:1;  stroke-linecap:round; stroke-linejoin:round;"
     id="g570" />
  <g
     style="fill:#A00000; fill-opacity:0.0;  stroke:#A00000; stroke-width:120; stroke-opacity:1;  stroke-linecap:round; stroke-linejoin:round;"
     id="g572">
    <rect
       x="32000"
       y="25600"
       width="3000"
       height="800"
       rx="0"
       id="rect574" />
  </g>
  <g
     style="fill:#A00000; fill-opacity:0.0;  stroke:#A00000; stroke-width:60; stroke-opacity:1;  stroke-linecap:round; stroke-linejoin:round;"
     id="g576">
    <path
       d="M32000 26000 L31000 26000 "
       id="path578" />
  </g>
  <g
     style="fill:#00A0A0; fill-opacity:0.0;  stroke:#00A0A0; stroke-width:60; stroke-opacity:1;  stroke-linecap:round; stroke-linejoin:round;"
     id="g580" />
  <g
     style="fill:#A00000; fill-opacity:0.0;  stroke:#A00000; stroke-width:60; stroke-opacity:1;  stroke-linecap:round; stroke-linejoin:round;"
     id="g582">
    <path
       d="M35000 26000 L36000 26000 "
       id="path584" />
  </g>
  <g
     style="fill:#00A0A0; fill-opacity:0.0;  stroke:#00A0A0; stroke-width:60; stroke-opacity:1;  stroke-linecap:round; stroke-linejoin:round;"
     id="g586">
    <path
       d="M33450 25390 L33320 25200 "
       id="path588" />
    <path
       d="M33230 25390 L33230 24990 L33380 24990 L33420 25010 L33430 25030 L33450 25070 L33450 25130 L33430 25160 L33420 25180 L33380 25200 L33230 25200 "
       id="path590" />
    <path
       d="M33680 25350 L33700 25370 L33680 25390 L33660 25370 L33680 25350 L33680 25390 "
       id="path592" />
    <path
       d="M33610 25010 L33640 24990 L33740 24990 L33780 25010 L33800 25050 L33800 25090 L33780 25130 L33760 25140 L33720 25160 L33700 25180 L33680 25220 L33680 25240 "
       id="path594" />
    <path
       d="M32600 25720 L32860 25720 L32690 26120 "
       id="path596" />
    <path
       d="M33090 25720 L33130 25720 L33170 25740 L33190 25760 L33210 25800 L33220 25870 L33220 25970 L33210 26050 L33190 26080 L33170 26100 L33130 26120 L33090 26120 L33050 26100 L33030 26080 L33020 26050 L33000 25970 L33000 25870 L33020 25800 L33030 25760 L33050 25740 L33090 25720 "
       id="path598" />
    <path
       d="M33470 25720 L33510 25720 L33550 25740 L33570 25760 L33590 25800 L33600 25870 L33600 25970 L33590 26050 L33570 26080 L33550 26100 L33510 26120 L33470 26120 L33430 26100 L33410 26080 L33400 26050 L33380 25970 L33380 25870 L33400 25800 L33410 25760 L33430 25740 L33470 25720 "
       id="path600" />
    <path
       d="M34060 26120 L34150 26120 L34150 26050 L34110 26030 L34080 25990 L34060 25930 L34060 25840 L34080 25780 L34110 25740 L34170 25720 L34250 25720 L34300 25740 L34340 25780 L34360 25840 L34360 25930 L34340 25990 L34300 26030 L34270 26050 L34270 26120 L34360 26120 "
       id="path602" />
  </g>
  <g
     style="fill:#00A0A0; fill-opacity:0.0;  stroke:#00A0A0; stroke-width:0; stroke-opacity:1;  stroke-linecap:round; stroke-linejoin:round;"
     id="g604" />
  <g
     style="fill:#A00000; fill-opacity:0.0;  stroke:#A00000; stroke-width:60; stroke-opacity:1;  stroke-linecap:round; stroke-linejoin:round;"
     id="g606">
    <path
       d="M44000.4 26250 A250 250 0.0 0 0 44000.9 25750 "
       id="path608" />
    <circle
       cx="44000"
       cy="26250"
       r="70"
       id="circle610" />
    <rect
       x="39500"
       y="23500"
       width="6000"
       height="6500"
       rx="0"
       id="rect612" />
    <polyline
       fill="none;"
       points="40750,27000 40500,27250 "
       id="polyline614" />
    <polyline
       fill="none;"
       points="40750,27000 41250,27000 "
       id="polyline616" />
    <polyline
       fill="none;"
       points="41250,27000 41500,26750 "
       id="polyline618" />
    <polyline
       fill="none;"
       points="42500,28000 42500,27500 "
       id="polyline620" />
    <polyline
       fill="none;"
       points="42500,27000 42500,26500 "
       id="polyline622" />
    <polyline
       fill="none;"
       points="42500,26000 42500,25500 "
       id="polyline624" />
    <polyline
       fill="none;"
       points="42500,25000 42500,24500 "
       id="polyline626" />
    <polyline
       fill="none;"
       points="42800,26100 42700,26300 "
       id="polyline628" />
    <polyline
       fill="none;"
       points="44250,26000 45500,26000 "
       id="polyline630" />
    <polyline
       fill="none;"
       points="39500,26000 41000,26000 41000,26500 "
       id="polyline632" />
    <polyline
       fill="none;"
       points="41000,27000 41000,27500 39500,27500 "
       id="polyline634" />
    <polyline
       fill="none;"
       points="43850,26100 44050,26100 44050,25950 "
       id="polyline636" />
    <polyline
       fill="none;"
       points="44150,25950 43950,25950 43950,26100 "
       id="polyline638" />
    <polyline
       fill="none;"
       points="45500,29000 42500,29000 42500,28500 "
       id="polyline640" />
    <polyline
       fill="none;"
       points="45500,27500 44000,27500 44000,26250 "
       id="polyline642" />
    <polyline
       fill="none;"
       points="41000,27000 40750,26500 41250,26500 41000,27000 "
       id="polyline644" />
    <polyline
       fill="none;"
       points="44000,25750 43750,25750 43750,26250 44000,26250 "
       id="polyline646" />
    <polyline
       fill="none;"
       points="42200,26400 42500,26100 42500,26400 42800,26100 42600,26200 "
       id="polyline648" />
    <path
       d="M39500 24500 L36500 24500 "
       id="path650" />
  </g>
  <g
     style="fill:#00A0A0; fill-opacity:0.0;  stroke:#00A0A0; stroke-width:60; stroke-opacity:1;  stroke-linecap:round; stroke-linejoin:round;"
     id="g652" />
  <g
     style="fill:#A00000; fill-opacity:0.0;  stroke:#A00000; stroke-width:60; stroke-opacity:1;  stroke-linecap:round; stroke-linejoin:round;"
     id="g654">
    <path
       d="M38140 24350 L37860 24350 "
       id="path656" />
    <path
       d="M38000 24350 L38000 23850 L37950 23920 L37900 23970 L37860 24000 "
       id="path658" />
    <path
       d="M39500 26000 L36500 26000 "
       id="path660" />
  </g>
  <g
     style="fill:#00A0A0; fill-opacity:0.0;  stroke:#00A0A0; stroke-width:60; stroke-opacity:1;  stroke-linecap:round; stroke-linejoin:round;"
     id="g662">
    <path
       d="M39700 26060 L39930 26060 "
       id="path664" />
    <path
       d="M39650 26200 L39810 25700 L39980 26200 "
       id="path666" />
  </g>
  <g
     style="fill:#A00000; fill-opacity:0.0;  stroke:#A00000; stroke-width:60; stroke-opacity:1;  stroke-linecap:round; stroke-linejoin:round;"
     id="g668">
    <path
       d="M37860 25400 L37880 25380 L37930 25350 L38050 25350 L38090 25380 L38120 25400 L38140 25450 L38140 25500 L38120 25570 L37830 25850 L38140 25850 "
       id="path670" />
    <path
       d="M39500 27500 L36500 27500 "
       id="path672" />
  </g>
  <g
     style="fill:#00A0A0; fill-opacity:0.0;  stroke:#00A0A0; stroke-width:60; stroke-opacity:1;  stroke-linecap:round; stroke-linejoin:round;"
     id="g674">
    <path
       d="M39720 27700 L39720 27200 "
       id="path676" />
    <path
       d="M40000 27700 L39790 27420 "
       id="path678" />
    <path
       d="M40000 27200 L39720 27490 "
       id="path680" />
  </g>
  <g
     style="fill:#A00000; fill-opacity:0.0;  stroke:#A00000; stroke-width:60; stroke-opacity:1;  stroke-linecap:round; stroke-linejoin:round;"
     id="g682">
    <path
       d="M37830 26850 L38140 26850 L37970 27040 L38050 27040 L38090 27070 L38120 27090 L38140 27140 L38140 27260 L38120 27300 L38090 27330 L38050 27350 L37900 27350 L37860 27330 L37830 27300 "
       id="path684" />
    <path
       d="M39500 29000 L36500 29000 "
       id="path686" />
  </g>
  <g
     style="fill:#00A0A0; fill-opacity:0.0;  stroke:#00A0A0; stroke-width:60; stroke-opacity:1;  stroke-linecap:round; stroke-linejoin:round;"
     id="g688" />
  <g
     style="fill:#A00000; fill-opacity:0.0;  stroke:#A00000; stroke-width:60; stroke-opacity:1;  stroke-linecap:round; stroke-linejoin:round;"
     id="g690">
    <path
       d="M38090 28520 L38090 28850 "
       id="path692" />
    <path
       d="M37970 28330 L37860 28690 L38160 28690 "
       id="path694" />
    <path
       d="M45500 29000 L48500 29000 "
       id="path696" />
  </g>
  <g
     style="fill:#00A0A0; fill-opacity:0.0;  stroke:#00A0A0; stroke-width:60; stroke-opacity:1;  stroke-linecap:round; stroke-linejoin:round;"
     id="g698">
    <path
       d="M44260 28730 L44210 28700 L44140 28700 L44070 28730 L44020 28770 L44000 28820 L43980 28920 L43980 28990 L44000 29080 L44020 29130 L44070 29180 L44140 29200 L44190 29200 L44260 29180 L44280 29150 L44280 28990 L44190 28990 "
       id="path700" />
    <path
       d="M44500 29200 L44500 28700 L44780 29200 L44780 28700 "
       id="path702" />
    <path
       d="M45020 29200 L45020 28700 L45140 28700 L45210 28730 L45260 28770 L45280 28820 L45300 28920 L45300 28990 L45280 29080 L45260 29130 L45210 29180 L45140 29200 L45020 29200 "
       id="path704" />
  </g>
  <g
     style="fill:#A00000; fill-opacity:0.0;  stroke:#A00000; stroke-width:60; stroke-opacity:1;  stroke-linecap:round; stroke-linejoin:round;"
     id="g706">
    <path
       d="M47120 28350 L46880 28350 L46860 28590 L46880 28570 L46930 28540 L47050 28540 L47090 28570 L47120 28590 L47140 28640 L47140 28760 L47120 28800 L47090 28830 L47050 28850 L46930 28850 L46880 28830 L46860 28800 "
       id="path708" />
    <circle
       cx="45850"
       cy="27500"
       r="350"
       id="circle710" />
    <path
       d="M46200 27500 L48500 27500 "
       id="path712" />
  </g>
  <g
     style="fill:#00A0A0; fill-opacity:0.0;  stroke:#00A0A0; stroke-width:60; stroke-opacity:1;  stroke-linecap:round; stroke-linejoin:round;"
     id="g714">
    <path
       d="M44590 27200 L44750 27700 L44920 27200 "
       id="path716" />
    <path
       d="M45280 27680 L45230 27700 L45140 27700 L45090 27680 L45070 27630 L45070 27440 L45090 27390 L45140 27370 L45230 27370 L45280 27390 L45300 27440 L45300 27490 L45070 27540 "
       id="path718" />
  </g>
  <g
     style="fill:#A00000; fill-opacity:0.0;  stroke:#A00000; stroke-width:60; stroke-opacity:1;  stroke-linecap:round; stroke-linejoin:round;"
     id="g720">
    <path
       d="M47090 26850 L47000 26850 L46950 26880 L46930 26900 L46880 26970 L46860 27070 L46860 27260 L46880 27300 L46900 27330 L46950 27350 L47050 27350 L47090 27330 L47120 27300 L47140 27260 L47140 27140 L47120 27090 L47090 27070 L47050 27040 L46950 27040 L46900 27070 L46880 27090 L46860 27140 "
       id="path722" />
    <path
       d="M45500 26000 L48500 26000 "
       id="path724" />
  </g>
  <g
     style="fill:#00A0A0; fill-opacity:0.0;  stroke:#00A0A0; stroke-width:60; stroke-opacity:1;  stroke-linecap:round; stroke-linejoin:round;"
     id="g726">
    <path
       d="M44570 25700 L44730 26200 L44900 25700 "
       id="path728" />
    <path
       d="M45140 26200 L45090 26180 L45070 26150 L45050 26110 L45050 25960 L45070 25920 L45090 25890 L45140 25870 L45210 25870 L45260 25890 L45280 25920 L45310 25960 L45310 26110 L45280 26150 L45260 26180 L45210 26200 L45140 26200 "
       id="path730" />
  </g>
  <g
     style="fill:#A00000; fill-opacity:0.0;  stroke:#A00000; stroke-width:60; stroke-opacity:1;  stroke-linecap:round; stroke-linejoin:round;"
     id="g732">
    <path
       d="M46830 25350 L47160 25350 L46950 25850 "
       id="path734" />
    <path
       d="M45500 24500 L48500 24500 "
       id="path736" />
  </g>
  <g
     style="fill:#00A0A0; fill-opacity:0.0;  stroke:#00A0A0; stroke-width:60; stroke-opacity:1;  stroke-linecap:round; stroke-linejoin:round;"
     id="g738">
    <path
       d="M44160 24200 L44320 24700 L44490 24200 "
       id="path740" />
    <path
       d="M44870 24680 L44830 24700 L44730 24700 L44680 24680 L44660 24650 L44640 24610 L44640 24460 L44660 24420 L44680 24390 L44730 24370 L44830 24370 L44870 24390 "
       id="path742" />
    <path
       d="M45300 24680 L45260 24700 L45160 24700 L45110 24680 L45090 24650 L45070 24610 L45070 24460 L45090 24420 L45110 24390 L45160 24370 L45260 24370 L45300 24390 "
       id="path744" />
  </g>
  <g
     style="fill:#A00000; fill-opacity:0.0;  stroke:#A00000; stroke-width:60; stroke-opacity:1;  stroke-linecap:round; stroke-linejoin:round;"
     id="g746">
    <path
       d="M46950 24070 L46900 24040 L46880 24020 L46860 23970 L46860 23950 L46880 23900 L46900 23880 L46950 23850 L47050 23850 L47090 23880 L47120 23900 L47140 23950 L47140 23970 L47120 24020 L47090 24040 L47050 24070 L46950 24070 L46900 24090 L46880 24110 L46860 24160 L46860 24260 L46880 24300 L46900 24330 L46950 24350 L47050 24350 L47090 24330 L47120 24300 L47140 24260 L47140 24160 L47120 24110 L47090 24090 L47050 24070 "
       id="path748" />
  </g>
  <g
     style="fill:#00A0A0; fill-opacity:0.0;  stroke:#00A0A0; stroke-width:60; stroke-opacity:1;  stroke-linecap:round; stroke-linejoin:round;"
     id="g750">
    <path
       d="M39640 22610 L39640 23100 L39670 23160 L39700 23180 L39760 23210 L39870 23210 L39930 23180 L39960 23160 L39990 23100 L39990 22610 "
       id="path752" />
    <path
       d="M40360 23160 L40390 23180 L40360 23210 L40330 23180 L40360 23160 L40360 23210 "
       id="path754" />
    <path
       d="M40240 22640 L40300 22610 L40440 22610 L40500 22640 L40530 22700 L40530 22760 L40500 22810 L40470 22840 L40420 22870 L40390 22900 L40360 22960 L40360 22980 "
       id="path756" />
    <path
       d="M39640 30710 L39640 30110 "
       id="path758" />
    <path
       d="M39640 30400 L39990 30400 "
       id="path760" />
    <path
       d="M39990 30710 L39990 30110 "
       id="path762" />
    <path
       d="M40620 30660 L40590 30680 L40500 30710 L40440 30710 L40360 30680 L40300 30630 L40270 30570 L40240 30460 L40240 30370 L40270 30260 L40300 30200 L40360 30140 L40440 30110 L40500 30110 L40590 30140 L40620 30170 "
       id="path764" />
    <path
       d="M40870 30710 L40870 30110 L41100 30110 L41160 30140 L41190 30170 L41220 30230 L41220 30310 L41190 30370 L41160 30400 L41100 30430 L40870 30430 "
       id="path766" />
    <path
       d="M41760 30710 L41470 30710 L41470 30110 "
       id="path768" />
    <path
       d="M41960 30480 L42420 30480 "
       id="path770" />
    <path
       d="M42670 30170 L42700 30140 L42760 30110 L42900 30110 L42960 30140 L42990 30170 L43020 30230 L43020 30280 L42990 30370 L42650 30710 L43020 30710 "
       id="path772" />
    <path
       d="M43240 30170 L43270 30140 L43330 30110 L43470 30110 L43530 30140 L43560 30170 L43590 30230 L43590 30280 L43560 30370 L43220 30710 L43590 30710 "
       id="path774" />
    <path
       d="M43960 30110 L44010 30110 L44070 30140 L44100 30170 L44130 30230 L44160 30340 L44160 30480 L44130 30600 L44100 30660 L44070 30680 L44010 30710 L43960 30710 L43900 30680 L43870 30660 L43840 30600 L43810 30480 L43810 30340 L43840 30230 L43870 30170 L43900 30140 L43960 30110 "
       id="path776" />
    <path
       d="M44530 30110 L44580 30110 L44640 30140 L44670 30170 L44700 30230 L44730 30340 L44730 30480 L44700 30600 L44670 30660 L44640 30680 L44580 30710 L44530 30710 L44470 30680 L44440 30660 L44410 30600 L44380 30480 L44380 30340 L44410 30230 L44440 30170 L44470 30140 L44530 30110 "
       id="path778" />
  </g>
  <g
     style="fill:#00A0A0; fill-opacity:0.0;  stroke:#00A0A0; stroke-width:0; stroke-opacity:1;  stroke-linecap:round; stroke-linejoin:round;"
     id="g780" />
  <g
     style="fill:#A00000; fill-opacity:0.0;  stroke:#A00000; stroke-width:60; stroke-opacity:1;  stroke-linecap:round; stroke-linejoin:round;"
     id="g782">
    <rect
       x="60000"
       y="23500"
       width="6000"
       height="6500"
       rx="0"
       id="rect784" />
    <path
       d="M60000 24500 L57000 24500 "
       id="path786" />
  </g>
  <g
     style="fill:#00A0A0; fill-opacity:0.0;  stroke:#00A0A0; stroke-width:60; stroke-opacity:1;  stroke-linecap:round; stroke-linejoin:round;"
     id="g788">
    <path
       d="M60220 24440 L60390 24440 "
       id="path790" />
    <path
       d="M60460 24700 L60220 24700 L60220 24200 L60460 24200 "
       id="path792" />
    <path
       d="M60670 24700 L60670 24200 L60950 24700 L60950 24200 "
       id="path794" />
    <path
       d="M61070 24750 L61450 24750 "
       id="path796" />
    <path
       d="M61550 24560 L61780 24560 "
       id="path798" />
    <path
       d="M61500 24700 L61660 24200 L61830 24700 "
       id="path800" />
  </g>
  <g
     style="fill:#A00000; fill-opacity:0.0;  stroke:#A00000; stroke-width:60; stroke-opacity:1;  stroke-linecap:round; stroke-linejoin:round;"
     id="g802">
    <path
       d="M58640 24350 L58360 24350 "
       id="path804" />
    <path
       d="M58500 24350 L58500 23850 L58450 23920 L58400 23970 L58360 24000 "
       id="path806" />
    <path
       d="M60000 26000 L57000 26000 "
       id="path808" />
  </g>
  <g
     style="fill:#00A0A0; fill-opacity:0.0;  stroke:#00A0A0; stroke-width:60; stroke-opacity:1;  stroke-linecap:round; stroke-linejoin:round;"
     id="g810">
    <path
       d="M60220 26200 L60220 25700 "
       id="path812" />
    <path
       d="M60460 26200 L60460 25700 L60740 26200 L60740 25700 "
       id="path814" />
    <path
       d="M60860 26250 L61240 26250 "
       id="path816" />
    <path
       d="M61340 26060 L61570 26060 "
       id="path818" />
    <path
       d="M61290 26200 L61450 25700 L61620 26200 "
       id="path820" />
  </g>
  <g
     style="fill:#A00000; fill-opacity:0.0;  stroke:#A00000; stroke-width:60; stroke-opacity:1;  stroke-linecap:round; stroke-linejoin:round;"
     id="g822">
    <path
       d="M58360 25400 L58380 25380 L58430 25350 L58550 25350 L58590 25380 L58620 25400 L58640 25450 L58640 25500 L58620 25570 L58330 25850 L58640 25850 "
       id="path824" />
    <path
       d="M60000 27500 L57000 27500 "
       id="path826" />
  </g>
  <g
     style="fill:#00A0A0; fill-opacity:0.0;  stroke:#00A0A0; stroke-width:60; stroke-opacity:1;  stroke-linecap:round; stroke-linejoin:round;"
     id="g828">
    <path
       d="M60480 27230 L60430 27200 L60360 27200 L60290 27230 L60240 27270 L60220 27320 L60200 27420 L60200 27490 L60220 27580 L60240 27630 L60290 27680 L60360 27700 L60410 27700 L60480 27680 L60500 27650 L60500 27490 L60410 27490 "
       id="path830" />
    <path
       d="M60720 27700 L60720 27200 L61000 27700 L61000 27200 "
       id="path832" />
    <path
       d="M61240 27700 L61240 27200 L61360 27200 L61430 27230 L61480 27270 L61500 27320 L61520 27420 L61520 27490 L61500 27580 L61480 27630 L61430 27680 L61360 27700 L61240 27700 "
       id="path834" />
  </g>
  <g
     style="fill:#A00000; fill-opacity:0.0;  stroke:#A00000; stroke-width:60; stroke-opacity:1;  stroke-linecap:round; stroke-linejoin:round;"
     id="g836">
    <path
       d="M58330 26850 L58640 26850 L58470 27040 L58550 27040 L58590 27070 L58620 27090 L58640 27140 L58640 27260 L58620 27300 L58590 27330 L58550 27350 L58400 27350 L58360 27330 L58330 27300 "
       id="path838" />
    <path
       d="M60000 29000 L57000 29000 "
       id="path840" />
  </g>
  <g
     style="fill:#00A0A0; fill-opacity:0.0;  stroke:#00A0A0; stroke-width:60; stroke-opacity:1;  stroke-linecap:round; stroke-linejoin:round;"
     id="g842">
    <path
       d="M60220 29200 L60220 28700 "
       id="path844" />
    <path
       d="M60460 29200 L60460 28700 L60740 29200 L60740 28700 "
       id="path846" />
    <path
       d="M60860 29250 L61240 29250 "
       id="path848" />
    <path
       d="M61530 28940 L61600 28960 L61620 28990 L61640 29040 L61640 29110 L61620 29150 L61600 29180 L61550 29200 L61360 29200 L61360 28700 L61530 28700 L61570 28730 L61600 28750 L61620 28800 L61620 28850 L61600 28890 L61570 28920 L61530 28940 L61360 28940 "
       id="path850" />
  </g>
  <g
     style="fill:#A00000; fill-opacity:0.0;  stroke:#A00000; stroke-width:60; stroke-opacity:1;  stroke-linecap:round; stroke-linejoin:round;"
     id="g852">
    <path
       d="M58590 28520 L58590 28850 "
       id="path854" />
    <path
       d="M58470 28330 L58360 28690 L58660 28690 "
       id="path856" />
    <path
       d="M66000 29000 L69000 29000 "
       id="path858" />
  </g>
  <g
     style="fill:#00A0A0; fill-opacity:0.0;  stroke:#00A0A0; stroke-width:60; stroke-opacity:1;  stroke-linecap:round; stroke-linejoin:round;"
     id="g860">
    <path
       d="M63810 28700 L63910 28700 L63960 28730 L64000 28770 L64030 28870 L64030 29040 L64000 29130 L63960 29180 L63910 29200 L63810 29200 L63770 29180 L63720 29130 L63700 29040 L63700 28870 L63720 28770 L63770 28730 L63810 28700 "
       id="path862" />
    <path
       d="M64240 28700 L64240 29110 L64260 29150 L64290 29180 L64330 29200 L64430 29200 L64480 29180 L64500 29150 L64520 29110 L64520 28700 "
       id="path864" />
    <path
       d="M64690 28700 L64970 28700 "
       id="path866" />
    <path
       d="M64830 29200 L64830 28700 "
       id="path868" />
    <path
       d="M65020 29250 L65400 29250 "
       id="path870" />
    <path
       d="M65690 28940 L65760 28960 L65780 28990 L65800 29040 L65800 29110 L65780 29150 L65760 29180 L65710 29200 L65520 29200 L65520 28700 L65690 28700 L65730 28730 L65760 28750 L65780 28800 L65780 28850 L65760 28890 L65730 28920 L65690 28940 L65520 28940 "
       id="path872" />
  </g>
  <g
     style="fill:#A00000; fill-opacity:0.0;  stroke:#A00000; stroke-width:60; stroke-opacity:1;  stroke-linecap:round; stroke-linejoin:round;"
     id="g874">
    <path
       d="M67620 28350 L67380 28350 L67360 28590 L67380 28570 L67430 28540 L67550 28540 L67590 28570 L67620 28590 L67640 28640 L67640 28760 L67620 28800 L67590 28830 L67550 28850 L67430 28850 L67380 28830 L67360 28800 "
       id="path876" />
    <path
       d="M66000 27500 L69000 27500 "
       id="path878" />
  </g>
  <g
     style="fill:#00A0A0; fill-opacity:0.0;  stroke:#00A0A0; stroke-width:60; stroke-opacity:1;  stroke-linecap:round; stroke-linejoin:round;"
     id="g880">
    <path
       d="M64660 27200 L64820 27700 L64990 27200 "
       id="path882" />
    <path
       d="M65370 27680 L65330 27700 L65230 27700 L65180 27680 L65160 27650 L65140 27610 L65140 27460 L65160 27420 L65180 27390 L65230 27370 L65330 27370 L65370 27390 "
       id="path884" />
    <path
       d="M65800 27680 L65760 27700 L65660 27700 L65610 27680 L65590 27650 L65570 27610 L65570 27460 L65590 27420 L65610 27390 L65660 27370 L65760 27370 L65800 27390 "
       id="path886" />
  </g>
  <g
     style="fill:#A00000; fill-opacity:0.0;  stroke:#A00000; stroke-width:60; stroke-opacity:1;  stroke-linecap:round; stroke-linejoin:round;"
     id="g888">
    <path
       d="M67590 26850 L67500 26850 L67450 26880 L67430 26900 L67380 26970 L67360 27070 L67360 27260 L67380 27300 L67400 27330 L67450 27350 L67550 27350 L67590 27330 L67620 27300 L67640 27260 L67640 27140 L67620 27090 L67590 27070 L67550 27040 L67450 27040 L67400 27070 L67380 27090 L67360 27140 "
       id="path890" />
    <path
       d="M66000 26000 L69000 26000 "
       id="path892" />
  </g>
  <g
     style="fill:#00A0A0; fill-opacity:0.0;  stroke:#00A0A0; stroke-width:60; stroke-opacity:1;  stroke-linecap:round; stroke-linejoin:round;"
     id="g894">
    <path
       d="M63880 25700 L63980 25700 L64030 25730 L64070 25770 L64100 25870 L64100 26040 L64070 26130 L64030 26180 L63980 26200 L63880 26200 L63840 26180 L63790 26130 L63770 26040 L63770 25870 L63790 25770 L63840 25730 L63880 25700 "
       id="path896" />
    <path
       d="M64310 25700 L64310 26110 L64330 26150 L64360 26180 L64400 26200 L64500 26200 L64550 26180 L64570 26150 L64590 26110 L64590 25700 "
       id="path898" />
    <path
       d="M64760 25700 L65040 25700 "
       id="path900" />
    <path
       d="M64900 26200 L64900 25700 "
       id="path902" />
    <path
       d="M65090 26250 L65470 26250 "
       id="path904" />
    <path
       d="M65570 26060 L65800 26060 "
       id="path906" />
    <path
       d="M65520 26200 L65680 25700 L65850 26200 "
       id="path908" />
  </g>
  <g
     style="fill:#A00000; fill-opacity:0.0;  stroke:#A00000; stroke-width:60; stroke-opacity:1;  stroke-linecap:round; stroke-linejoin:round;"
     id="g910">
    <path
       d="M67330 25350 L67660 25350 L67450 25850 "
       id="path912" />
    <path
       d="M66000 24500 L69000 24500 "
       id="path914" />
  </g>
  <g
     style="fill:#00A0A0; fill-opacity:0.0;  stroke:#00A0A0; stroke-width:60; stroke-opacity:1;  stroke-linecap:round; stroke-linejoin:round;"
     id="g916">
    <path
       d="M64170 24440 L64340 24440 "
       id="path918" />
    <path
       d="M64410 24700 L64170 24700 L64170 24200 L64410 24200 "
       id="path920" />
    <path
       d="M64620 24700 L64620 24200 L64900 24700 L64900 24200 "
       id="path922" />
    <path
       d="M65020 24750 L65400 24750 "
       id="path924" />
    <path
       d="M65690 24440 L65760 24460 L65780 24490 L65800 24540 L65800 24610 L65780 24650 L65760 24680 L65710 24700 L65520 24700 L65520 24200 L65690 24200 L65730 24230 L65760 24250 L65780 24300 L65780 24350 L65760 24390 L65730 24420 L65690 24440 L65520 24440 "
       id="path926" />
  </g>
  <g
     style="fill:#A00000; fill-opacity:0.0;  stroke:#A00000; stroke-width:60; stroke-opacity:1;  stroke-linecap:round; stroke-linejoin:round;"
     id="g928">
    <path
       d="M67450 24070 L67400 24040 L67380 24020 L67360 23970 L67360 23950 L67380 23900 L67400 23880 L67450 23850 L67550 23850 L67590 23880 L67620 23900 L67640 23950 L67640 23970 L67620 24020 L67590 24040 L67550 24070 L67450 24070 L67400 24090 L67380 24110 L67360 24160 L67360 24260 L67380 24300 L67400 24330 L67450 24350 L67550 24350 L67590 24330 L67620 24300 L67640 24260 L67640 24160 L67620 24110 L67590 24090 L67550 24070 "
       id="path930" />
  </g>
  <g
     style="fill:#00A0A0; fill-opacity:0.0;  stroke:#00A0A0; stroke-width:60; stroke-opacity:1;  stroke-linecap:round; stroke-linejoin:round;"
     id="g932">
    <path
       d="M60140 22610 L60140 23100 L60170 23160 L60200 23180 L60260 23210 L60370 23210 L60430 23180 L60460 23160 L60490 23100 L60490 22610 "
       id="path934" />
    <path
       d="M60860 23160 L60890 23180 L60860 23210 L60830 23180 L60860 23160 L60860 23210 "
       id="path936" />
    <path
       d="M60740 22640 L60800 22610 L60940 22610 L61000 22640 L61030 22700 L61030 22760 L61000 22810 L60970 22840 L60920 22870 L60890 22900 L60860 22960 L60860 22980 "
       id="path938" />
    <path
       d="M60140 30710 L60140 30110 L60340 30540 L60540 30110 L60540 30710 "
       id="path940" />
    <path
       d="M61180 30660 L61150 30680 L61060 30710 L61000 30710 L60920 30680 L60860 30630 L60830 30570 L60800 30460 L60800 30370 L60830 30260 L60860 30200 L60920 30140 L61000 30110 L61060 30110 L61150 30140 L61180 30170 "
       id="path942" />
    <path
       d="M61430 30710 L61430 30110 L61660 30110 L61720 30140 L61750 30170 L61780 30230 L61780 30310 L61750 30370 L61720 30400 L61660 30430 L61430 30430 "
       id="path944" />
    <path
       d="M62350 30710 L62000 30710 "
       id="path946" />
    <path
       d="M62180 30710 L62180 30110 L62120 30200 L62060 30260 L62000 30280 "
       id="path948" />
    <path
       d="M62860 30310 L62860 30710 "
       id="path950" />
    <path
       d="M62720 30080 L62570 30510 L62950 30510 "
       id="path952" />
    <path
       d="M63170 30400 L63370 30400 "
       id="path954" />
    <path
       d="M63460 30710 L63170 30710 L63170 30110 L63460 30110 "
       id="path956" />
    <path
       d="M64030 30710 L63680 30710 "
       id="path958" />
    <path
       d="M63860 30710 L63860 30110 L63800 30200 L63740 30260 L63680 30280 "
       id="path960" />
    <path
       d="M64400 30110 L64450 30110 L64510 30140 L64540 30170 L64570 30230 L64600 30340 L64600 30480 L64570 30600 L64540 30660 L64510 30680 L64450 30710 L64400 30710 L64340 30680 L64310 30660 L64280 30600 L64250 30480 L64250 30340 L64280 30230 L64310 30170 L64340 30140 L64400 30110 "
       id="path962" />
  </g>
  <g
     style="fill:#00A0A0; fill-opacity:0.0;  stroke:#00A0A0; stroke-width:0; stroke-opacity:1;  stroke-linecap:round; stroke-linejoin:round;"
     id="g964" />
  <g
     style="fill:#A00000; fill-opacity:0.0;  stroke:#A00000; stroke-width:120; stroke-opacity:1;  stroke-linecap:round; stroke-linejoin:round;"
     id="g966">
    <rect
       x="74000"
       y="25600"
       width="3000"
       height="800"
       rx="0"
       id="rect968" />
  </g>
  <g
     style="fill:#A00000; fill-opacity:0.0;  stroke:#A00000; stroke-width:60; stroke-opacity:1;  stroke-linecap:round; stroke-linejoin:round;"
     id="g970">
    <path
       d="M74000 26000 L73000 26000 "
       id="path972" />
  </g>
  <g
     style="fill:#00A0A0; fill-opacity:0.0;  stroke:#00A0A0; stroke-width:60; stroke-opacity:1;  stroke-linecap:round; stroke-linejoin:round;"
     id="g974" />
  <g
     style="fill:#A00000; fill-opacity:0.0;  stroke:#A00000; stroke-width:60; stroke-opacity:1;  stroke-linecap:round; stroke-linejoin:round;"
     id="g976">
    <path
       d="M77000 26000 L78000 26000 "
       id="path978" />
  </g>
  <g
     style="fill:#00A0A0; fill-opacity:0.0;  stroke:#00A0A0; stroke-width:60; stroke-opacity:1;  stroke-linecap:round; stroke-linejoin:round;"
     id="g980">
    <path
       d="M75450 25390 L75320 25200 "
       id="path982" />
    <path
       d="M75230 25390 L75230 24990 L75380 24990 L75420 25010 L75430 25030 L75450 25070 L75450 25130 L75430 25160 L75420 25180 L75380 25200 L75230 25200 "
       id="path984" />
    <path
       d="M75680 25350 L75700 25370 L75680 25390 L75660 25370 L75680 25350 L75680 25390 "
       id="path986" />
    <path
       d="M75610 25010 L75640 24990 L75740 24990 L75780 25010 L75800 25050 L75800 25090 L75780 25130 L75760 25140 L75720 25160 L75700 25180 L75680 25220 L75680 25240 "
       id="path988" />
    <path
       d="M75000 25860 L75000 26120 "
       id="path990" />
    <path
       d="M74900 25700 L74810 25990 L75050 25990 "
       id="path992" />
    <path
       d="M75280 25720 L75320 25720 L75360 25740 L75380 25760 L75400 25800 L75410 25870 L75410 25970 L75400 26050 L75380 26080 L75360 26100 L75320 26120 L75280 26120 L75240 26100 L75220 26080 L75210 26050 L75190 25970 L75190 25870 L75210 25800 L75220 25760 L75240 25740 L75280 25720 "
       id="path994" />
    <path
       d="M75870 26120 L75960 26120 L75960 26050 L75920 26030 L75890 25990 L75870 25930 L75870 25840 L75890 25780 L75920 25740 L75980 25720 L76060 25720 L76110 25740 L76150 25780 L76170 25840 L76170 25930 L76150 25990 L76110 26030 L76080 26050 L76080 26120 L76170 26120 "
       id="path996" />
  </g>
  <g
     style="fill:#00A0A0; fill-opacity:0.0;  stroke:#00A0A0; stroke-width:0; stroke-opacity:1;  stroke-linecap:round; stroke-linejoin:round;"
     id="g998" />
  <g
     style="fill:#A00000; fill-opacity:0.0;  stroke:#A00000; stroke-width:200; stroke-opacity:1;  stroke-linecap:round; stroke-linejoin:round;"
     id="g1000">
    <polyline
       fill="none;"
       points="56200,38300 57800,38300 "
       id="polyline1002" />
    <polyline
       fill="none;"
       points="56200,37700 57800,37700 "
       id="polyline1004" />
  </g>
  <g
     style="fill:#A00000; fill-opacity:0.0;  stroke:#A00000; stroke-width:60; stroke-opacity:1;  stroke-linecap:round; stroke-linejoin:round;"
     id="g1006">
    <path
       d="M57000 37700 L57000 36000 "
       id="path1008" />
  </g>
  <g
     style="fill:#00A0A0; fill-opacity:0.0;  stroke:#00A0A0; stroke-width:60; stroke-opacity:1;  stroke-linecap:round; stroke-linejoin:round;"
     id="g1010" />
  <g
     style="fill:#A00000; fill-opacity:0.0;  stroke:#A00000; stroke-width:60; stroke-opacity:1;  stroke-linecap:round; stroke-linejoin:round;"
     id="g1012">
    <path
       d="M57000 38300 L57000 40000 "
       id="path1014" />
  </g>
  <g
     style="fill:#00A0A0; fill-opacity:0.0;  stroke:#00A0A0; stroke-width:60; stroke-opacity:1;  stroke-linecap:round; stroke-linejoin:round;"
     id="g1016">
    <path
       d="M57320 37090 L57300 37110 L57250 37130 L57210 37130 L57150 37110 L57110 37070 L57100 37040 L57080 36960 L57080 36900 L57100 36830 L57110 36790 L57150 36750 L57210 36730 L57250 36730 L57300 36750 L57320 36770 "
       id="path1018" />
    <path
       d="M57550 37090 L57570 37110 L57550 37130 L57530 37110 L57550 37090 L57550 37130 "
       id="path1020" />
    <path
       d="M57480 36750 L57510 36730 L57610 36730 L57650 36750 L57670 36790 L57670 36830 L57650 36870 L57630 36880 L57590 36900 L57570 36920 L57550 36960 L57550 36980 "
       id="path1022" />
    <path
       d="M57330 38720 L57330 38980 "
       id="path1024" />
    <path
       d="M57230 38560 L57140 38850 L57380 38850 "
       id="path1026" />
    <path
       d="M57500 38580 L57760 38580 L57590 38980 "
       id="path1028" />
    <path
       d="M57990 38580 L58030 38580 L58070 38600 L58090 38620 L58110 38660 L58120 38730 L58120 38830 L58110 38910 L58090 38940 L58070 38960 L58030 38980 L57990 38980 L57950 38960 L57930 38940 L57920 38910 L57900 38830 L57900 38730 L57920 38660 L57930 38620 L57950 38600 L57990 38580 "
       id="path1030" />
    <path
       d="M58600 38720 L58600 38980 "
       id="path1032" />
    <path
       d="M58600 38750 L58610 38730 L58650 38720 L58710 38720 L58750 38730 L58770 38770 L58770 38980 "
       id="path1034" />
    <path
       d="M59090 38770 L58960 38770 "
       id="path1036" />
    <path
       d="M58960 38980 L58960 38580 L59150 38580 "
       id="path1038" />
  </g>
  <g
     style="fill:#00A0A0; fill-opacity:0.0;  stroke:#00A0A0; stroke-width:0; stroke-opacity:1;  stroke-linecap:round; stroke-linejoin:round;"
     id="g1040" />
  <g
     style="fill:#A00000; fill-opacity:0.0;  stroke:#A00000; stroke-width:200; stroke-opacity:1;  stroke-linecap:round; stroke-linejoin:round;"
     id="g1042">
    <polyline
       fill="none;"
       points="32800,38200 31200,38200 "
       id="polyline1044" />
    <polyline
       fill="none;"
       points="32800,38800 31200,38800 "
       id="polyline1046" />
  </g>
  <g
     style="fill:#A00000; fill-opacity:0.0;  stroke:#A00000; stroke-width:60; stroke-opacity:1;  stroke-linecap:round; stroke-linejoin:round;"
     id="g1048">
    <path
       d="M32000 38800 L32000 40500 "
       id="path1050" />
  </g>
  <g
     style="fill:#00A0A0; fill-opacity:0.0;  stroke:#00A0A0; stroke-width:60; stroke-opacity:1;  stroke-linecap:round; stroke-linejoin:round;"
     id="g1052" />
  <g
     style="fill:#A00000; fill-opacity:0.0;  stroke:#A00000; stroke-width:60; stroke-opacity:1;  stroke-linecap:round; stroke-linejoin:round;"
     id="g1054">
    <path
       d="M32000 38200 L32000 36500 "
       id="path1056" />
  </g>
  <g
     style="fill:#00A0A0; fill-opacity:0.0;  stroke:#00A0A0; stroke-width:60; stroke-opacity:1;  stroke-linecap:round; stroke-linejoin:round;"
     id="g1058">
    <path
       d="M31580 39650 L31560 39670 L31510 39690 L31470 39690 L31410 39670 L31370 39630 L31360 39600 L31340 39520 L31340 39460 L31360 39390 L31370 39350 L31410 39310 L31470 39290 L31510 39290 L31560 39310 L31580 39330 "
       id="path1060" />
    <path
       d="M31810 39650 L31830 39670 L31810 39690 L31790 39670 L31810 39650 L31810 39690 "
       id="path1062" />
    <path
       d="M31740 39310 L31770 39290 L31870 39290 L31910 39310 L31930 39350 L31930 39390 L31910 39430 L31890 39440 L31850 39460 L31830 39480 L31810 39520 L31810 39540 "
       id="path1064" />
    <path
       d="M30100 37840 L29880 37840 "
       id="path1066" />
    <path
       d="M29990 37840 L29990 37440 L29950 37500 L29910 37540 L29880 37560 "
       id="path1068" />
    <path
       d="M30350 37440 L30390 37440 L30430 37460 L30450 37480 L30470 37520 L30480 37590 L30480 37690 L30470 37770 L30450 37800 L30430 37820 L30390 37840 L30350 37840 L30310 37820 L30290 37800 L30280 37770 L30260 37690 L30260 37590 L30280 37520 L30290 37480 L30310 37460 L30350 37440 "
       id="path1070" />
    <path
       d="M30730 37440 L30770 37440 L30810 37460 L30830 37480 L30850 37520 L30860 37590 L30860 37690 L30850 37770 L30830 37800 L30810 37820 L30770 37840 L30730 37840 L30690 37820 L30670 37800 L30660 37770 L30640 37690 L30640 37590 L30660 37520 L30670 37480 L30690 37460 L30730 37440 "
       id="path1072" />
    <path
       d="M31340 37580 L31340 37840 "
       id="path1074" />
    <path
       d="M31340 37610 L31350 37590 L31390 37580 L31450 37580 L31490 37590 L31510 37630 L31510 37840 "
       id="path1076" />
    <path
       d="M31830 37630 L31700 37630 "
       id="path1078" />
    <path
       d="M31700 37840 L31700 37440 L31890 37440 "
       id="path1080" />
  </g>
  <g
     style="fill:#00A000; fill-opacity:0.0;  stroke:#00A000; stroke-width:60; stroke-opacity:1;  stroke-linecap:round; stroke-linejoin:round;"
     id="g1082">
    <path
       d="M29000 41500 L36500 41500 "
       id="path1084" />
  </g>
  <g
     style="fill:#00A000; fill-opacity:0.0;  stroke:#00A000; stroke-width:0; stroke-opacity:1;  stroke-linecap:round; stroke-linejoin:round;"
     id="g1086" />
  <g
     style="fill:#00A000; fill-opacity:1.0;  stroke:#00A000; stroke-width:100; stroke-opacity:1;  stroke-linecap:round; stroke-linejoin:round;"
     id="g1088">
    <circle
       cx="32000"
       cy="41500"
       r="160"
       id="circle1090" />
  </g>
  <g
     style="fill:#00A000; fill-opacity:1.0;  stroke:#00A000; stroke-width:60; stroke-opacity:1;  stroke-linecap:round; stroke-linejoin:round;"
     id="g1092">
    <path
       d="M29000 35000 L35000 35000 "
       id="path1094" />
    <path
       d="M32000 35000 L32000 36500 "
       id="path1096" />
    <path
       d="M35000 38500 L36500 38500 "
       id="path1098" />
  </g>
  <g
     style="fill:#00A000; fill-opacity:1.0;  stroke:#00A000; stroke-width:0; stroke-opacity:1;  stroke-linecap:round; stroke-linejoin:round;"
     id="g1100" />
  <g
     style="fill:#00A000; fill-opacity:1.0;  stroke:#00A000; stroke-width:100; stroke-opacity:1;  stroke-linecap:round; stroke-linejoin:round;"
     id="g1102">
    <circle
       cx="32000"
       cy="35000"
       r="160"
       id="circle1104" />
  </g>
  <g
     style="fill:#00A000; fill-opacity:1.0;  stroke:#00A000; stroke-width:60; stroke-opacity:1;  stroke-linecap:round; stroke-linejoin:round;"
     id="g1106">
    <path
       d="M36000 26000 L36500 26000 "
       id="path1108" />
    <path
       d="M29000 27500 L36500 27500 "
       id="path1110" />
    <path
       d="M70500 35000 L50000 35000 "
       id="path1112" />
    <path
       d="M52000 35000 L52000 24500 "
       id="path1114" />
    <path
       d="M48500 24500 L57000 24500 "
       id="path1116" />
    <path
       d="M48500 29000 L54000 29000 "
       id="path1118" />
    <path
       d="M54000 41500 L54000 27500 "
       id="path1120" />
    <path
       d="M48000 41500 L84500 41500 "
       id="path1122" />
    <path
       d="M54000 27500 L57000 27500 "
       id="path1124" />
  </g>
  <g
     style="fill:#00A000; fill-opacity:1.0;  stroke:#00A000; stroke-width:0; stroke-opacity:1;  stroke-linecap:round; stroke-linejoin:round;"
     id="g1126" />
  <g
     style="fill:#00A000; fill-opacity:1.0;  stroke:#00A000; stroke-width:100; stroke-opacity:1;  stroke-linecap:round; stroke-linejoin:round;"
     id="g1128">
    <circle
       cx="54000"
       cy="29000"
       r="160"
       id="circle1130" />
  </g>
  <g
     style="fill:#00A000; fill-opacity:1.0;  stroke:#00A000; stroke-width:0; stroke-opacity:1;  stroke-linecap:round; stroke-linejoin:round;"
     id="g1132" />
  <g
     style="fill:#00A000; fill-opacity:1.0;  stroke:#00A000; stroke-width:100; stroke-opacity:1;  stroke-linecap:round; stroke-linejoin:round;"
     id="g1134">
    <circle
       cx="52000"
       cy="35000"
       r="160"
       id="circle1136" />
  </g>
  <g
     style="fill:#00A000; fill-opacity:1.0;  stroke:#00A000; stroke-width:60; stroke-opacity:1;  stroke-linecap:round; stroke-linejoin:round;"
     id="g1138">
    <path
       d="M48500 26000 L57000 26000 "
       id="path1140" />
    <path
       d="M57000 29000 L55500 29000 "
       id="path1142" />
    <path
       d="M55500 29000 L55500 26000 "
       id="path1144" />
  </g>
  <g
     style="fill:#00A000; fill-opacity:1.0;  stroke:#00A000; stroke-width:0; stroke-opacity:1;  stroke-linecap:round; stroke-linejoin:round;"
     id="g1146" />
  <g
     style="fill:#00A000; fill-opacity:1.0;  stroke:#00A000; stroke-width:100; stroke-opacity:1;  stroke-linecap:round; stroke-linejoin:round;"
     id="g1148">
    <circle
       cx="55500"
       cy="26000"
       r="160"
       id="circle1150" />
  </g>
  <g
     style="fill:#00A000; fill-opacity:1.0;  stroke:#00A000; stroke-width:60; stroke-opacity:1;  stroke-linecap:round; stroke-linejoin:round;"
     id="g1152">
    <path
       d="M48500 27500 L50000 27500 "
       id="path1154" />
  </g>
  <g
     style="fill:#00A000; fill-opacity:1.0;  stroke:#00A000; stroke-width:0; stroke-opacity:1;  stroke-linecap:round; stroke-linejoin:round;"
     id="g1156" />
  <g
     style="fill:#00A000; fill-opacity:1.0;  stroke:#00A000; stroke-width:100; stroke-opacity:1;  stroke-linecap:round; stroke-linejoin:round;"
     id="g1158">
    <circle
       cx="52000"
       cy="24500"
       r="160"
       id="circle1160" />
  </g>
  <g
     style="fill:#00A000; fill-opacity:1.0;  stroke:#00A000; stroke-width:60; stroke-opacity:1;  stroke-linecap:round; stroke-linejoin:round;"
     id="g1162">
    <path
       d="M50000 27500 L50000 29000 "
       id="path1164" />
  </g>
  <g
     style="fill:#00A000; fill-opacity:1.0;  stroke:#00A000; stroke-width:0; stroke-opacity:1;  stroke-linecap:round; stroke-linejoin:round;"
     id="g1166" />
  <g
     style="fill:#00A000; fill-opacity:1.0;  stroke:#00A000; stroke-width:100; stroke-opacity:1;  stroke-linecap:round; stroke-linejoin:round;"
     id="g1168">
    <circle
       cx="50000"
       cy="29000"
       r="160"
       id="circle1170" />
  </g>
  <g
     style="fill:#00A000; fill-opacity:1.0;  stroke:#00A000; stroke-width:60; stroke-opacity:1;  stroke-linecap:round; stroke-linejoin:round;"
     id="g1172">
    <path
       d="M69000 27500 L70500 27500 "
       id="path1174" />
    <path
       d="M70500 24500 L70500 35000 "
       id="path1176" />
    <path
       d="M69000 24500 L70500 24500 "
       id="path1178" />
  </g>
  <g
     style="fill:#00A000; fill-opacity:1.0;  stroke:#00A000; stroke-width:0; stroke-opacity:1;  stroke-linecap:round; stroke-linejoin:round;"
     id="g1180" />
  <g
     style="fill:#00A000; fill-opacity:1.0;  stroke:#00A000; stroke-width:100; stroke-opacity:1;  stroke-linecap:round; stroke-linejoin:round;"
     id="g1182">
    <circle
       cx="70500"
       cy="27500"
       r="160"
       id="circle1184" />
  </g>
  <g
     style="fill:#00A000; fill-opacity:1.0;  stroke:#00A000; stroke-width:0; stroke-opacity:1;  stroke-linecap:round; stroke-linejoin:round;"
     id="g1186" />
  <g
     style="fill:#A00000; fill-opacity:0.0;  stroke:#A00000; stroke-width:120; stroke-opacity:1;  stroke-linecap:round; stroke-linejoin:round;"
     id="g1188">
    <rect
       x="74000"
       y="28600"
       width="3000"
       height="800"
       rx="0"
       id="rect1190" />
  </g>
  <g
     style="fill:#A00000; fill-opacity:0.0;  stroke:#A00000; stroke-width:60; stroke-opacity:1;  stroke-linecap:round; stroke-linejoin:round;"
     id="g1192">
    <path
       d="M74000 29000 L73000 29000 "
       id="path1194" />
  </g>
  <g
     style="fill:#00A0A0; fill-opacity:0.0;  stroke:#00A0A0; stroke-width:60; stroke-opacity:1;  stroke-linecap:round; stroke-linejoin:round;"
     id="g1196" />
  <g
     style="fill:#A00000; fill-opacity:0.0;  stroke:#A00000; stroke-width:60; stroke-opacity:1;  stroke-linecap:round; stroke-linejoin:round;"
     id="g1198">
    <path
       d="M77000 29000 L78000 29000 "
       id="path1200" />
  </g>
  <g
     style="fill:#00A0A0; fill-opacity:0.0;  stroke:#00A0A0; stroke-width:60; stroke-opacity:1;  stroke-linecap:round; stroke-linejoin:round;"
     id="g1202">
    <path
       d="M75450 28390 L75320 28200 "
       id="path1204" />
    <path
       d="M75230 28390 L75230 27990 L75380 27990 L75420 28010 L75430 28030 L75450 28070 L75450 28130 L75430 28160 L75420 28180 L75380 28200 L75230 28200 "
       id="path1206" />
    <path
       d="M75680 28350 L75700 28370 L75680 28390 L75660 28370 L75680 28350 L75680 28390 "
       id="path1208" />
    <path
       d="M75610 28010 L75640 27990 L75740 27990 L75780 28010 L75800 28050 L75800 28090 L75780 28130 L75760 28140 L75720 28160 L75700 28180 L75680 28220 L75680 28240 "
       id="path1210" />
    <path
       d="M75000 28860 L75000 29120 "
       id="path1212" />
    <path
       d="M74900 28700 L74810 28990 L75050 28990 "
       id="path1214" />
    <path
       d="M75280 28720 L75320 28720 L75360 28740 L75380 28760 L75400 28800 L75410 28870 L75410 28970 L75400 29050 L75380 29080 L75360 29100 L75320 29120 L75280 29120 L75240 29100 L75220 29080 L75210 29050 L75190 28970 L75190 28870 L75210 28800 L75220 28760 L75240 28740 L75280 28720 "
       id="path1216" />
    <path
       d="M75870 29120 L75960 29120 L75960 29050 L75920 29030 L75890 28990 L75870 28930 L75870 28840 L75890 28780 L75920 28740 L75980 28720 L76060 28720 L76110 28740 L76150 28780 L76170 28840 L76170 28930 L76150 28990 L76110 29030 L76080 29050 L76080 29120 L76170 29120 "
       id="path1218" />
  </g>
  <g
     style="fill:#00A000; fill-opacity:0.0;  stroke:#00A000; stroke-width:60; stroke-opacity:1;  stroke-linecap:round; stroke-linejoin:round;"
     id="g1220">
    <path
       d="M69000 26000 L73000 26000 "
       id="path1222" />
    <path
       d="M69000 29000 L73000 29000 "
       id="path1224" />
    <path
       d="M78000 26000 L84500 26000 "
       id="path1226" />
    <path
       d="M78000 29000 L80000 29000 "
       id="path1228" />
    <path
       d="M80000 29000 L80000 26000 "
       id="path1230" />
  </g>
  <g
     style="fill:#00A000; fill-opacity:0.0;  stroke:#00A000; stroke-width:0; stroke-opacity:1;  stroke-linecap:round; stroke-linejoin:round;"
     id="g1232" />
  <g
     style="fill:#00A000; fill-opacity:1.0;  stroke:#00A000; stroke-width:100; stroke-opacity:1;  stroke-linecap:round; stroke-linejoin:round;"
     id="g1234">
    <circle
       cx="80000"
       cy="26000"
       r="160"
       id="circle1236" />
  </g>
  <g
     style="fill:#00A000; fill-opacity:1.0;  stroke:#00A000; stroke-width:0; stroke-opacity:1;  stroke-linecap:round; stroke-linejoin:round;"
     id="g1238" />
  <g
     style="fill:#00A000; fill-opacity:1.0;  stroke:#00A000; stroke-width:100; stroke-opacity:1;  stroke-linecap:round; stroke-linejoin:round;"
     id="g1240">
    <circle
       cx="54000"
       cy="41500"
       r="160"
       id="circle1242" />
  </g>
  <g
     style="fill:#00A000; fill-opacity:1.0;  stroke:#00A000; stroke-width:60; stroke-opacity:1;  stroke-linecap:round; stroke-linejoin:round;"
     id="g1244" />
  <g
     style="fill:#808000; fill-opacity:0.0;  stroke:#808000; stroke-width:60; stroke-opacity:1;  stroke-linecap:round; stroke-linejoin:round;"
     id="g1246">
    <path
       d="M27460 26240 L27460 25640 "
       id="path1248" />
    <path
       d="M27750 26240 L27750 25640 L28100 26240 L28100 25640 "
       id="path1250" />
  </g>
  <g
     style="fill:#808000; fill-opacity:0.0;  stroke:#808000; stroke-width:100; stroke-opacity:1;  stroke-linecap:round; stroke-linejoin:round;"
     id="g1252">
    <polyline
       fill="none;"
       points="29000,26000 28700,25700 28400,25700 28400,26300 28700,26300 29000,26000 "
       id="polyline1254" />
  </g>
  <g
     style="fill:#808000; fill-opacity:0.0;  stroke:#808000; stroke-width:60; stroke-opacity:1;  stroke-linecap:round; stroke-linejoin:round;"
     id="g1256">
    <path
       d="M25950 27740 L25950 27140 L26100 27140 L26180 27170 L26240 27230 L26270 27290 L26300 27400 L26300 27490 L26270 27600 L26240 27660 L26180 27710 L26100 27740 L25950 27740 "
       id="path1258" />
    <path
       d="M26870 27170 L26810 27140 L26720 27140 L26640 27170 L26580 27230 L26550 27290 L26520 27400 L26520 27490 L26550 27600 L26580 27660 L26640 27710 L26720 27740 L26780 27740 L26870 27710 L26900 27690 L26900 27490 L26780 27490 "
       id="path1260" />
    <path
       d="M27150 27740 L27150 27140 L27500 27740 L27500 27140 "
       id="path1262" />
    <path
       d="M27780 27740 L27780 27140 L27930 27140 L28010 27170 L28070 27230 L28100 27290 L28130 27400 L28130 27490 L28100 27600 L28070 27660 L28010 27710 L27930 27740 L27780 27740 "
       id="path1264" />
  </g>
  <g
     style="fill:#808000; fill-opacity:0.0;  stroke:#808000; stroke-width:100; stroke-opacity:1;  stroke-linecap:round; stroke-linejoin:round;"
     id="g1266">
    <polyline
       fill="none;"
       points="29000,27500 28700,27200 28400,27200 28400,27800 28700,27800 29000,27500 "
       id="polyline1268" />
  </g>
  <g
     style="fill:#808000; fill-opacity:0.0;  stroke:#808000; stroke-width:60; stroke-opacity:1;  stroke-linecap:round; stroke-linejoin:round;"
     id="g1270" />
  <g
     style="fill:#00A000; fill-opacity:0.0;  stroke:#00A000; stroke-width:60; stroke-opacity:1;  stroke-linecap:round; stroke-linejoin:round;"
     id="g1272">
    <path
       d="M29000 26000 L31000 26000 "
       id="path1274" />
  </g>
  <g
     style="fill:#808000; fill-opacity:0.0;  stroke:#808000; stroke-width:60; stroke-opacity:1;  stroke-linecap:round; stroke-linejoin:round;"
     id="g1276">
    <path
       d="M26560 35010 L27020 35010 "
       id="path1278" />
    <path
       d="M26790 35240 L26790 34790 "
       id="path1280" />
    <path
       d="M27590 34640 L27300 34640 L27270 34930 L27300 34900 L27360 34870 L27500 34870 L27560 34900 L27590 34930 L27620 34990 L27620 35130 L27590 35190 L27560 35210 L27500 35240 L27360 35240 L27300 35210 L27270 35190 "
       id="path1282" />
    <path
       d="M27790 34640 L27990 35240 L28190 34640 "
       id="path1284" />
  </g>
  <g
     style="fill:#808000; fill-opacity:0.0;  stroke:#808000; stroke-width:100; stroke-opacity:1;  stroke-linecap:round; stroke-linejoin:round;"
     id="g1286">
    <polyline
       fill="none;"
       points="29000,35000 28700,34700 28400,34700 28400,35300 28700,35300 29000,35000 "
       id="polyline1288" />
  </g>
  <g
     style="fill:#808000; fill-opacity:0.0;  stroke:#808000; stroke-width:60; stroke-opacity:1;  stroke-linecap:round; stroke-linejoin:round;"
     id="g1290">
    <path
       d="M25950 41740 L25950 41140 L26180 41140 L26240 41170 L26270 41200 L26300 41260 L26300 41340 L26270 41400 L26240 41430 L26180 41460 L25950 41460 "
       id="path1292" />
    <path
       d="M26870 41170 L26810 41140 L26720 41140 L26640 41170 L26580 41230 L26550 41290 L26520 41400 L26520 41490 L26550 41600 L26580 41660 L26640 41710 L26720 41740 L26780 41740 L26870 41710 L26900 41690 L26900 41490 L26780 41490 "
       id="path1294" />
    <path
       d="M27150 41740 L27150 41140 L27500 41740 L27500 41140 "
       id="path1296" />
    <path
       d="M27780 41740 L27780 41140 L27930 41140 L28010 41170 L28070 41230 L28100 41290 L28130 41400 L28130 41490 L28100 41600 L28070 41660 L28010 41710 L27930 41740 L27780 41740 "
       id="path1298" />
  </g>
  <g
     style="fill:#808000; fill-opacity:0.0;  stroke:#808000; stroke-width:100; stroke-opacity:1;  stroke-linecap:round; stroke-linejoin:round;"
     id="g1300">
    <polyline
       fill="none;"
       points="29000,41500 28700,41200 28400,41200 28400,41800 28700,41800 29000,41500 "
       id="polyline1302" />
  </g>
  <g
     style="fill:#808000; fill-opacity:0.0;  stroke:#808000; stroke-width:60; stroke-opacity:1;  stroke-linecap:round; stroke-linejoin:round;"
     id="g1304">
    <path
       d="M85720 25670 L85660 25640 L85570 25640 L85490 25670 L85430 25730 L85400 25790 L85370 25900 L85370 25990 L85400 26100 L85430 26160 L85490 26210 L85570 26240 L85630 26240 L85720 26210 L85750 26190 L85750 25990 L85630 25990 "
       id="path1306" />
    <path
       d="M85970 26070 L86260 26070 "
       id="path1308" />
    <path
       d="M85920 26240 L86120 25640 L86320 26240 "
       id="path1310" />
    <path
       d="M86430 25640 L86770 25640 "
       id="path1312" />
    <path
       d="M86600 26240 L86600 25640 "
       id="path1314" />
    <path
       d="M86970 25930 L87170 25930 "
       id="path1316" />
    <path
       d="M87260 26240 L86970 26240 L86970 25640 L87260 25640 "
       id="path1318" />
  </g>
  <g
     style="fill:#808000; fill-opacity:0.0;  stroke:#808000; stroke-width:100; stroke-opacity:1;  stroke-linecap:round; stroke-linejoin:round;"
     id="g1320">
    <polyline
       fill="none;"
       points="85100,26000 84800,25700 84500,25700 84500,26300 84800,26300 85100,26000 "
       id="polyline1322" />
  </g>
  <g
     style="fill:#808000; fill-opacity:0.0;  stroke:#808000; stroke-width:60; stroke-opacity:1;  stroke-linecap:round; stroke-linejoin:round;"
     id="g1324">
    <path
       d="M85400 41430 L85600 41430 "
       id="path1326" />
    <path
       d="M85690 41740 L85400 41740 L85400 41140 L85690 41140 "
       id="path1328" />
    <path
       d="M85940 41740 L85940 41140 L86140 41570 L86340 41140 L86340 41740 "
       id="path1330" />
    <path
       d="M86630 41740 L86630 41140 "
       id="path1332" />
    <path
       d="M86840 41140 L87180 41140 "
       id="path1334" />
    <path
       d="M87010 41740 L87010 41140 "
       id="path1336" />
    <path
       d="M87300 41140 L87640 41140 "
       id="path1338" />
    <path
       d="M87470 41740 L87470 41140 "
       id="path1340" />
    <path
       d="M87840 41430 L88040 41430 "
       id="path1342" />
    <path
       d="M88130 41740 L87840 41740 L87840 41140 L88130 41140 "
       id="path1344" />
    <path
       d="M88730 41740 L88530 41460 "
       id="path1346" />
    <path
       d="M88380 41740 L88380 41140 L88610 41140 L88670 41170 L88700 41200 L88730 41260 L88730 41340 L88700 41400 L88670 41430 L88610 41460 L88380 41460 "
       id="path1348" />
  </g>
  <g
     style="fill:#808000; fill-opacity:0.0;  stroke:#808000; stroke-width:100; stroke-opacity:1;  stroke-linecap:round; stroke-linejoin:round;"
     id="g1350">
    <polyline
       fill="none;"
       points="85100,41500 84800,41200 84500,41200 84500,41800 84800,41800 85100,41500 "
       id="polyline1352" />
  </g>
  <g
     style="fill:#808000; fill-opacity:0.0;  stroke:#808000; stroke-width:60; stroke-opacity:1;  stroke-linecap:round; stroke-linejoin:round;"
     id="g1354" />
  <g
     style="fill:#00A000; fill-opacity:0.0;  stroke:#00A000; stroke-width:60; stroke-opacity:1;  stroke-linecap:round; stroke-linejoin:round;"
     id="g1356">
    <path
       d="M32000 40500 L32000 41500 "
       id="path1358" />
    <path
       d="M35000 35000 L35000 38500 "
       id="path1360" />
    <path
       d="M48000 38500 L50000 38500 "
       id="path1362" />
    <path
       d="M50000 38500 L50000 35000 "
       id="path1364" />
    <path
       d="M57000 36000 L57000 35000 "
       id="path1366" />
  </g>
  <g
     style="fill:#00A000; fill-opacity:0.0;  stroke:#00A000; stroke-width:0; stroke-opacity:1;  stroke-linecap:round; stroke-linejoin:round;"
     id="g1368" />
  <g
     style="fill:#00A000; fill-opacity:1.0;  stroke:#00A000; stroke-width:100; stroke-opacity:1;  stroke-linecap:round; stroke-linejoin:round;"
     id="g1370">
    <circle
       cx="57000"
       cy="35000"
       r="160"
       id="circle1372" />
  </g>
  <g
     style="fill:#00A000; fill-opacity:1.0;  stroke:#00A000; stroke-width:60; stroke-opacity:1;  stroke-linecap:round; stroke-linejoin:round;"
     id="g1374">
    <path
       d="M57000 40000 L57000 41500 "
       id="path1376" />
  </g>
  <g
     style="fill:#00A000; fill-opacity:1.0;  stroke:#00A000; stroke-width:0; stroke-opacity:1;  stroke-linecap:round; stroke-linejoin:round;"
     id="g1378" />
  <g
     style="fill:#00A000; fill-opacity:1.0;  stroke:#00A000; stroke-width:100; stroke-opacity:1;  stroke-linecap:round; stroke-linejoin:round;"
     id="g1380">
    <circle
       cx="57000"
       cy="41500"
       r="160"
       id="circle1382" />
  </g>
</svg>
