/* XPM */
static char * background_xpm[] = {
"80 24 4 1",
" 	c #1A1B19",
".	c #505150",
"+	c #929391",
"@	c #DFE0DE",
"@@@@@@@@@@@@@@@@@@@@@@@@@@@@@@@@@@@@@@@@@@@@@@@@@@@@@@@@@@@@@@@@@@@@@@@@@@@@@@@@",
"@@@@@@@@@@@@@@@@@@@@@@@@@@@@@@@@@@@@@@@@@@@@@@@@@@@@@@@@@@@@@@@@@@@@@@@@@@@@@@@@",
"@@@@@@@@@@@@@@@@@@@@@@@@@@@@@@@@@@@@@@@@@@@@@@@@@@@@@@@@@@@@@@@@@@@@@@@@@@@@@@@@",
"@@@@@@@@@@@@@@@@@@@@@@@@@@@@@@@@@@@@@@@@@@@@@@@@@@@@@@@@@@@@@@@@@@@@@@@@@@@@@@@@",
"@@@@@@@@@@@@@@@@@@@@@@@@@@@@@@@@@@@@@@@@@@@@@@@@@@@@@@@@@@@@@@@@@@@@@@@@@@@@@@@@",
"@@@@@@@@@@@@@@@@@@@@@@@@@@@@@@@@@@@@@@@@@@@@@@@@@@@@@@@@@@@@@@@@@@@@@@@@@@@@@@@@",
"@@+@@@@+@@+@@@@@@+@@@+@@+@@+@@+@@+@@+@@+@+@+@+@+@+@+@+@+@+@+@+@+@+@+@+@+@++@++@+",
"@+@++@+@+@+@++++@@++@+@+@+@+@+@+@+@+@+@+@+@+@+@+@+@+@+@+@+@+@+@+@+@+@++@+@+@+@+@",
"+@+@+@+@+@++@@+@++@+@++@+@++@++@++@++@+@+@+@+@++@++@++@+++@+++++++++@+@++@++@+++",
"+++++++++@+++++++++++@+++@+++++@++++++++++++++++@++++++@+++++@+@+@+++++++++++@++",
"++@++++++++++@++@+++++++++++++++++++++++++++++++++++++++++++++++++++++++++++++++",
"++++++++++++++++++++++++++++++++++++++++++++++++++++++++++++++++++++++++++++++++",
"+++++++++++++++++++++++++++++++++++++++++++++++++++++++++++++.++++++++++++.++.++",
".+.+.+.+.+..+..+.+.+.+.+.+.+.+.+.+.+.+.+.+.+.+..+..+..+..+..+.+.....+...+.+.+.+.",
"+.+.+.+.+.+.+.+..+..+..+..+..+.+.+.+..+..+...+.+.+..+..+..+.+..++.+..+.+...+...+",
"...............+..+....+..+...........+...+......+.....+................+...+...",
"..+..+...+......................................................................",
"................................................................................",
".. ..... ...... ..... .. .......... .. .. .. .. .. .. . ... .. ... . . . .  . . ",
". .    . .   . .    . . .         .  .  . . .  .  .  . .  .  .   . .  .  . .  . ",
"  . . .   .    . .     .  . . . .  .  .      .   .          .  .                ",
"           .      .                                                             ",
"                                                                                ",
"                                                                                "};
